<svg width="16" height="17" viewBox="0 0 16 17" fill="none" xmlns="http://www.w3.org/2000/svg">
<g clip-path="url(#clip0_1277_4303)">
<path d="M7.9999 16.5C7.9999 16.5 2.3999 9.196 2.3999 6.1C2.3999 5.3646 2.54475 4.6364 2.82618 3.95697C3.1076 3.27755 3.5201 2.66021 4.0401 2.1402C4.56011 1.62019 5.17745 1.2077 5.85688 0.926275C6.5363 0.644848 7.2645 0.5 7.9999 0.5C8.7353 0.5 9.46351 0.644848 10.1429 0.926275C10.8224 1.2077 11.4397 1.62019 11.9597 2.1402C12.4797 2.66021 12.8922 3.27755 13.1736 3.95697C13.4551 4.6364 13.5999 5.3646 13.5999 6.1C13.5999 9.196 7.9999 16.5 7.9999 16.5ZM7.9999 7.7C8.42425 7.7 8.83121 7.53143 9.13127 7.23137C9.43133 6.93131 9.5999 6.52435 9.5999 6.1C9.5999 5.67565 9.43133 5.26869 9.13127 4.96863C8.83121 4.66857 8.42425 4.5 7.9999 4.5C7.57556 4.5 7.16859 4.66857 6.86853 4.96863C6.56847 5.26869 6.3999 5.67565 6.3999 6.1C6.3999 6.52435 6.56847 6.93131 6.86853 7.23137C7.16859 7.53143 7.57556 7.7 7.9999 7.7Z" fill="#219DD9"/>
</g>
<defs>
<clipPath id="clip0_1277_4303">
<rect width="16" height="16" fill="white" transform="translate(0 0.5)"/>
</clipPath>
</defs>
</svg>
