<svg width="154" height="39" viewBox="0 0 154 39" fill="none" xmlns="http://www.w3.org/2000/svg">
<path d="M52.2451 0.259277L55.7047 22.4837H56.414L60.7491 9.35409L56.4169 0.259277H52.2451Z" fill="#219DD9"/>
<path d="M79.1809 0.259277L75.696 22.4837H74.9923L70.6348 9.35409L74.9895 0.259277H79.1809Z" fill="#219DD9"/>
<path d="M10.9498 22.4836H7.44238V0.253418H10.4853V14.3219L11.7267 9.43175L14.5192 0.253418H18.2743V22.4836H15.2004V6.8283L13.8042 12.2915L10.947 22.4865L10.9498 22.4836Z" fill="#3E3E3E"/>
<path d="M27.2769 5.71671C27.2769 4.72313 27.1164 4.04923 26.7955 3.70076C26.4746 3.35229 26.0439 3.17661 25.5063 3.17661C24.9686 3.17661 24.5323 3.34077 24.203 3.66908C23.8708 3.99739 23.7075 4.56474 23.7075 5.36824V7.17971H20.5717V5.52951C20.5717 3.72956 20.9911 2.35871 21.83 1.41697C22.6688 0.475238 23.9243 0.00292969 25.602 0.00292969C27.2797 0.00292969 28.5464 0.483878 29.405 1.44865C30.2635 2.41343 30.6942 3.79292 30.6942 5.59287V6.16598C30.6942 8.53616 29.8976 10.0625 28.3043 10.7393C29.1742 11.1195 29.7878 11.707 30.151 12.5018C30.5141 13.2967 30.6942 14.2643 30.6942 15.4077V17.1558C30.6942 18.9557 30.2635 20.3381 29.405 21.3C28.5464 22.2648 27.2797 22.7457 25.602 22.7457C23.9243 22.7457 22.6576 22.2648 21.799 21.3C20.9405 20.3381 20.5098 18.9557 20.5098 17.1558V14.7107H23.7385V17.3775C23.7385 18.181 23.899 18.7484 24.2199 19.0767C24.5408 19.405 24.9686 19.5692 25.5091 19.5692C26.0496 19.5692 26.4774 19.3993 26.7984 19.0623C27.1193 18.7225 27.2797 18.0572 27.2797 17.0607V15.3155C27.2797 14.2787 27.1024 13.5472 26.7533 13.1239C26.4014 12.7005 25.8328 12.4874 25.0446 12.4874H24.2058V9.31086H25.2304C25.8722 9.31086 26.3733 9.14094 26.7364 8.80399C27.0996 8.46704 27.2797 7.85074 27.2797 6.96084V5.72247L27.2769 5.71671Z" fill="#3E3E3E"/>
<path d="M38.0187 0.253418C39.7358 0.253418 41.0138 0.719966 41.8527 1.65018C42.6915 2.58328 43.1109 3.94837 43.1109 5.74832V8.63689C43.1109 10.4368 42.6915 11.8019 41.8527 12.735C41.0138 13.6681 39.7358 14.1318 38.0187 14.1318H36.4057V22.4836H32.9912V0.253418H38.0187ZM36.4057 3.42998V10.9581H38.0187C38.5564 10.9581 38.9702 10.8112 39.2601 10.5146C39.55 10.218 39.6936 9.66791 39.6936 8.86441V5.52945C39.6936 4.72595 39.5472 4.17588 39.2601 3.87925C38.9702 3.58262 38.5564 3.43574 38.0187 3.43574H36.4057V3.42998Z" fill="#3E3E3E"/>
<path d="M55.7412 22.4836H52.2957L51.7046 18.4517H47.5131L46.922 22.4836H43.7861L47.2682 0.253418H52.2647L55.7412 22.4836ZM47.9494 15.4335H51.2401L49.5962 4.19028L47.9523 15.4335H47.9494Z" fill="#3E3E3E"/>
<path d="M87.6232 22.4836H84.1777L83.5893 18.4517H79.3979L78.8067 22.4836H75.6709L79.1474 0.253418H84.1439L87.6203 22.4836H87.6232ZM79.8314 15.4335H83.1221L81.4781 4.19028L79.8342 15.4335H79.8314Z" fill="#3E3E3E"/>
<path d="M100.38 22.4836H96.9658V0.253418H100.38V9.78022H104.259V0.253418H107.736V22.4836H104.259V12.9568H100.38V22.4836Z" fill="#3E3E3E"/>
<path d="M109.94 5.58994C109.94 3.78999 110.385 2.4105 111.275 1.44572C112.164 0.483828 113.448 0 115.123 0C116.798 0 118.081 0.480948 118.971 1.44572C119.86 2.4105 120.305 3.78999 120.305 5.58994V17.15C120.305 18.9499 119.86 20.3323 118.971 21.2942C118.081 22.259 116.798 22.7399 115.123 22.7399C113.448 22.7399 112.164 22.259 111.275 21.2942C110.385 20.3323 109.94 18.9499 109.94 17.15V5.58994ZM113.355 17.3717C113.355 18.1752 113.515 18.7426 113.836 19.0709C114.157 19.3992 114.585 19.5634 115.126 19.5634C115.666 19.5634 116.094 19.3992 116.415 19.0709C116.736 18.7426 116.896 18.1781 116.896 17.3717V5.36819C116.896 4.56469 116.736 3.99734 116.415 3.66903C116.094 3.34072 115.663 3.17656 115.126 3.17656C114.588 3.17656 114.157 3.34072 113.836 3.66903C113.515 3.99734 113.355 4.56469 113.355 5.36819V17.3717Z" fill="#3E3E3E"/>
<path d="M132.415 14.1952V17.15C132.415 18.9499 131.984 20.3323 131.126 21.2942C130.267 22.259 129 22.7399 127.323 22.7399C125.645 22.7399 124.378 22.259 123.52 21.2942C122.661 20.3323 122.23 18.9499 122.23 17.15V5.58994C122.23 3.78999 122.658 2.4105 123.52 1.44572C124.378 0.483828 125.645 0 127.323 0C129 0 130.267 0.480948 131.126 1.44572C131.984 2.4105 132.415 3.78999 132.415 5.58994V7.74989H129.186V5.36819C129.186 4.56469 129.026 3.99734 128.705 3.66903C128.384 3.34072 127.953 3.17656 127.416 3.17656C126.878 3.17656 126.447 3.34072 126.126 3.66903C125.805 3.99734 125.645 4.56469 125.645 5.36819V17.3717C125.645 18.1752 125.805 18.7368 126.126 19.0536C126.447 19.3704 126.875 19.5288 127.416 19.5288C127.956 19.5288 128.384 19.3704 128.705 19.0536C129.026 18.7368 129.186 18.1752 129.186 17.3717V14.1952H132.415Z" fill="#3E3E3E"/>
<path d="M133.501 0.253418H144.054V3.42998H140.485V22.4836H137.07V3.42998H133.501V0.253418Z" fill="#3E3E3E"/>
<path d="M88.4482 19.3099C88.8198 19.3416 89.2561 19.3416 89.6277 19.3416C90.7143 19.3416 91.5841 18.9298 91.5841 17.2133V0.253418H94.9986V16.957C94.9986 21.4036 92.6707 22.5469 90.095 22.5469C89.4729 22.5469 89.0084 22.5469 88.4511 22.4836V19.307L88.4482 19.3099Z" fill="#3E3E3E"/>
<path d="M59.9209 0.259277H63.966V9.24178L59.9209 0.259277Z" fill="#219DD9"/>
<path d="M71.4171 0.216064H67.3721V9.19856L71.4171 0.216064Z" fill="#219DD9"/>
<path d="M60.0371 22.4836L63.1392 12.6025L63.9808 14.3363V22.4836H60.0371Z" fill="#219DD9"/>
<path d="M71.2963 22.4836L68.1914 12.6025L67.3525 14.3363V22.4836H71.2963Z" fill="#219DD9"/>
<path d="M34.0577 33.4359C34.3391 33.4359 34.6009 33.4561 34.8487 33.4993L36.6193 31.3652H37.4187L35.5017 33.6519C36.0844 33.8391 36.5376 34.1559 36.8613 34.6052C37.1851 35.0544 37.4412 35.6563 37.6298 36.4109H36.8304C36.7319 35.9645 36.608 35.593 36.456 35.2963C36.304 34.9997 36.1154 34.7578 35.8874 34.5735C35.6594 34.3892 35.3948 34.2596 35.0907 34.1847C34.7895 34.1098 34.4433 34.0666 34.0577 34.0608V36.4109H33.3398V31.3652H34.0577V33.4359Z" fill="#3E3E3E"/>
<path d="M40.8023 35.6246H40.8221L42.3506 31.3652H43.1303L40.6757 37.7155C40.5293 38.1043 40.3407 38.4153 40.1127 38.6486C39.8847 38.8818 39.5553 38.9999 39.1275 38.9999C38.9107 38.9999 38.6968 38.9798 38.4856 38.9366L38.5588 38.2684C38.7277 38.326 38.9023 38.3548 39.0852 38.3548C39.3301 38.3548 39.5244 38.2771 39.6651 38.1215C39.8059 37.966 39.9297 37.7472 40.0339 37.4592L40.4336 36.4022L38.3252 31.3681H39.1246L40.7995 35.6275L40.8023 35.6246Z" fill="#3E3E3E"/>
<path d="M47.5971 36.4138L45.9644 32.2523L44.2585 36.4138H43.5098L45.6688 31.3682H46.3022L48.3261 36.4138H47.5999H47.5971Z" fill="#3E3E3E"/>
<path d="M48.6386 31.3682H52.9679V31.9816H51.1016V36.4109H50.3838V31.9816H48.6357V31.3682H48.6386Z" fill="#3E3E3E"/>
<path d="M55.7213 35.6246H55.741L57.2695 31.3652H58.0493L55.5946 37.7155C55.4482 38.1043 55.2596 38.4153 55.0316 38.6486C54.8036 38.8818 54.4743 38.9999 54.0464 38.9999C53.8297 38.9999 53.6157 38.9798 53.4046 38.9366L53.4778 38.2684C53.6467 38.326 53.8212 38.3548 54.0042 38.3548C54.2491 38.3548 54.4433 38.2771 54.5841 38.1215C54.7248 37.966 54.8487 37.7472 54.9528 37.4592L55.3525 36.4022L53.2441 31.3681H54.0436L55.7185 35.6275L55.7213 35.6246Z" fill="#3E3E3E"/>
<path d="M59.882 38.9999H59.167V31.3681H59.882V32.2407H59.913C60.1156 31.9095 60.3887 31.6619 60.7293 31.492C61.0699 31.322 61.4161 31.2385 61.768 31.2385C62.1536 31.2385 62.5027 31.3076 62.8152 31.443C63.1276 31.5784 63.395 31.7656 63.6146 32.0046C63.8342 32.2436 64.0087 32.523 64.1297 32.8455C64.2536 33.1681 64.3155 33.5165 64.3155 33.8909C64.3155 34.2653 64.2536 34.6138 64.1297 34.9364C64.0059 35.2589 63.8342 35.5411 63.6146 35.7773C63.3922 36.0134 63.1276 36.2006 62.8152 36.3389C62.5027 36.4742 62.1536 36.5434 61.768 36.5434C61.4161 36.5434 61.0699 36.4598 60.7293 36.2899C60.3887 36.12 60.1156 35.8781 59.913 35.5613H59.882V38.9999ZM63.5583 33.8909C63.5583 33.6116 63.5161 33.3466 63.4316 33.099C63.3472 32.8513 63.2261 32.6353 63.0685 32.451C62.9109 32.2667 62.7166 32.1227 62.483 32.0132C62.2522 31.9067 61.9876 31.8519 61.692 31.8519C61.4189 31.8519 61.1656 31.9038 60.9348 32.0075C60.704 32.1111 60.5013 32.2551 60.3352 32.4395C60.1663 32.6238 60.034 32.8369 59.9411 33.0874C59.8482 33.338 59.7975 33.6029 59.7975 33.8909C59.7975 34.1789 59.8454 34.4468 59.9411 34.6944C60.0368 34.9421 60.1663 35.1552 60.3352 35.3367C60.5041 35.5152 60.704 35.6592 60.9348 35.7629C61.1656 35.8666 61.4189 35.9184 61.692 35.9184C61.9876 35.9184 62.2494 35.8666 62.483 35.7629C62.7138 35.6592 62.9109 35.5152 63.0685 35.3309C63.2261 35.1466 63.3472 34.9335 63.4316 34.6829C63.5161 34.4352 63.5583 34.1703 63.5583 33.8909Z" fill="#3E3E3E"/>
<path d="M68.9655 33.1479C68.9655 32.713 68.8529 32.3876 68.6277 32.1745C68.4025 31.9614 68.076 31.8519 67.6481 31.8519C67.3525 31.8519 67.0795 31.9067 66.8261 32.0132C66.5728 32.1198 66.3588 32.2638 66.1843 32.4452L65.7846 31.9614C65.9873 31.754 66.2575 31.5812 66.5897 31.443C66.9246 31.3076 67.3019 31.2385 67.7213 31.2385C67.9887 31.2385 68.2364 31.276 68.4701 31.3508C68.7009 31.4257 68.9064 31.5409 69.0809 31.6907C69.2554 31.8404 69.3934 32.0334 69.4919 32.2609C69.5904 32.4913 69.6383 32.7591 69.6383 33.0702V35.2791C69.6383 35.472 69.6439 35.6736 69.658 35.8839C69.672 36.0912 69.6917 36.2669 69.7199 36.4109H69.0781C69.0584 36.2899 69.0387 36.1546 69.0246 36.0134C69.0105 35.8695 69.0021 35.7283 69.0021 35.593H68.9824C68.7572 35.9299 68.5038 36.1747 68.2195 36.3216C67.9352 36.4685 67.5918 36.5434 67.1921 36.5434C67.0035 36.5434 66.8064 36.5174 66.6066 36.4627C66.4067 36.408 66.2237 36.3216 66.0576 36.1978C65.8916 36.0739 65.7564 35.9155 65.6467 35.7226C65.5369 35.5267 65.4834 35.2906 65.4834 35.0084C65.4834 34.6196 65.5791 34.3114 65.7733 34.0839C65.9676 33.8564 66.2237 33.6865 66.5474 33.5741C66.8712 33.4618 67.2399 33.3898 67.6593 33.3582C68.076 33.3265 68.5123 33.3092 68.9599 33.3092V33.1479H68.9655ZM68.7544 33.8909C68.4588 33.8909 68.1632 33.9025 67.8648 33.9284C67.5665 33.9543 67.2962 34.0033 67.0541 34.0781C66.8121 34.153 66.6122 34.2625 66.4574 34.4064C66.3025 34.5504 66.2265 34.7405 66.2265 34.9767C66.2265 35.1552 66.2603 35.3079 66.3279 35.4288C66.3954 35.5498 66.4855 35.6506 66.5953 35.7255C66.7079 35.8003 66.8318 35.8551 66.9697 35.8867C67.1076 35.9184 67.2456 35.9357 67.3863 35.9357C67.6396 35.9357 67.8648 35.8896 68.0619 35.8003C68.2589 35.7111 68.4222 35.5872 68.5573 35.4346C68.6896 35.2791 68.7938 35.1034 68.8641 34.9018C68.9345 34.7002 68.9683 34.49 68.9683 34.2653V33.8881H68.7572L68.7544 33.8909Z" fill="#3E3E3E"/>
<path d="M72.9907 38.3088C73.0611 38.3319 73.1371 38.3463 73.216 38.3578C73.2976 38.3693 73.3736 38.3751 73.4411 38.3751C73.5875 38.3751 73.7086 38.3491 73.7986 38.2944C73.8887 38.2397 73.9591 38.1677 74.0098 38.0727C74.0576 37.9805 74.0914 37.8653 74.1111 37.7328C74.128 37.6004 74.1364 37.4535 74.1364 37.2951V31.3653H74.8543V37.4132C74.8543 37.6148 74.8317 37.8106 74.7923 38.0007C74.7501 38.1908 74.6769 38.3607 74.5699 38.5075C74.4658 38.6544 74.3222 38.7725 74.1421 38.8647C73.9619 38.9539 73.7339 39 73.4524 39C73.3764 39 73.2835 38.9943 73.1794 38.9827C73.0752 38.9712 72.9767 38.9511 72.8838 38.9223L72.9879 38.3088H72.9907ZM75.0034 29.4271C75.0034 29.5769 74.95 29.7007 74.8458 29.7986C74.7417 29.8966 74.6234 29.9455 74.4967 29.9455C74.3701 29.9455 74.2547 29.8966 74.1477 29.7986C74.0435 29.7007 73.9901 29.5769 73.9901 29.4271C73.9901 29.2774 74.0435 29.1507 74.1477 29.0556C74.2518 28.9577 74.3701 28.9116 74.4967 28.9116C74.6234 28.9116 74.7388 28.9606 74.8458 29.0556C74.95 29.1535 75.0034 29.2774 75.0034 29.4271Z" fill="#3E3E3E"/>
<path d="M79.8709 33.1479C79.8709 32.713 79.7583 32.3876 79.5331 32.1745C79.3079 31.9614 78.9813 31.8519 78.5535 31.8519C78.2579 31.8519 77.9849 31.9067 77.7315 32.0132C77.4782 32.1198 77.2642 32.2638 77.0897 32.4452L76.69 31.9614C76.8927 31.754 77.1629 31.5812 77.4951 31.443C77.83 31.3076 78.2072 31.2385 78.6267 31.2385C78.8941 31.2385 79.1418 31.276 79.3754 31.3508C79.6063 31.4257 79.8118 31.5409 79.9863 31.6907C80.1608 31.8404 80.2987 32.0334 80.3973 32.2609C80.4958 32.4913 80.5436 32.7591 80.5436 33.0702V35.2791C80.5436 35.472 80.5521 35.6736 80.5662 35.8839C80.5802 36.0941 80.5999 36.2669 80.6281 36.4109H79.9863C79.9638 36.2899 79.9469 36.1546 79.9328 36.0134C79.9187 35.8723 79.9131 35.7283 79.9131 35.593H79.8906C79.6654 35.9299 79.412 36.1747 79.1277 36.3216C78.8434 36.4685 78.5 36.5434 78.1003 36.5434C77.9117 36.5434 77.7146 36.5174 77.5148 36.4627C77.3149 36.408 77.1319 36.3216 76.9659 36.1978C76.7998 36.0739 76.6646 35.9155 76.5549 35.7226C76.4451 35.5267 76.3916 35.2906 76.3916 35.0084C76.3916 34.6196 76.4873 34.3114 76.6815 34.0839C76.8758 33.8564 77.1319 33.6865 77.4557 33.5741C77.7794 33.4618 78.1481 33.3898 78.5675 33.3582C78.9842 33.3265 79.4205 33.3092 79.8681 33.3092V33.1479H79.8709ZM79.6597 33.8909C79.3642 33.8909 79.0686 33.9025 78.7702 33.9284C78.4718 33.9543 78.2016 34.0033 77.9595 34.0781C77.7174 34.153 77.5176 34.2625 77.3628 34.4064C77.2079 34.5504 77.1319 34.7405 77.1319 34.9767C77.1319 35.1552 77.1657 35.3079 77.2333 35.4288C77.3008 35.5498 77.3909 35.6506 77.5007 35.7255C77.6133 35.8003 77.7371 35.8551 77.8751 35.8867C78.013 35.9184 78.1509 35.9357 78.2917 35.9357C78.545 35.9357 78.7702 35.8896 78.9673 35.8003C79.1643 35.7111 79.3304 35.5872 79.4627 35.4346C79.595 35.2791 79.6992 35.1034 79.7695 34.9018C79.8399 34.7002 79.8737 34.49 79.8737 34.2653V33.8881H79.6626L79.6597 33.8909Z" fill="#3E3E3E"/>
<path d="M84.6024 36.4138H82.3477V31.3682H84.4758C85.1007 31.3682 85.5651 31.492 85.8663 31.7397C86.1675 31.9873 86.3195 32.3157 86.3195 32.7246C86.3195 32.9118 86.2914 33.0673 86.2351 33.194C86.1788 33.3208 86.1 33.4244 85.9986 33.508C85.8973 33.5915 85.7791 33.6577 85.6468 33.7067C85.5145 33.7556 85.3737 33.8046 85.2245 33.8478C85.4075 33.8622 85.5792 33.8939 85.7397 33.9457C85.9001 33.9947 86.0437 34.0695 86.1675 34.1675C86.2914 34.2654 86.3871 34.3863 86.4575 34.5332C86.5279 34.6801 86.5644 34.8586 86.5644 35.066C86.5644 35.4749 86.3984 35.8033 86.069 36.048C85.7397 36.2928 85.2499 36.4138 84.6052 36.4138H84.6024ZM84.4335 33.6001C84.7854 33.6001 85.0613 33.5454 85.2611 33.4331C85.461 33.3208 85.5623 33.099 85.5623 32.7649C85.5623 32.5777 85.5229 32.428 85.4469 32.3214C85.3681 32.212 85.2611 32.1313 85.1204 32.0766C84.9796 32.0219 84.8107 31.9873 84.6137 31.9729C84.4166 31.9585 84.1999 31.9499 83.9606 31.9499H83.0655V33.6001H84.4363H84.4335ZM83.0626 35.8321H83.9803C84.2393 35.8321 84.4786 35.8263 84.6953 35.8148C84.9121 35.8033 85.1035 35.7716 85.2639 35.7169C85.4244 35.6621 85.5511 35.5786 85.644 35.4634C85.734 35.3482 85.7819 35.1841 85.7819 34.9738C85.7819 34.6254 85.658 34.3979 85.4075 34.2913C85.157 34.1819 84.822 34.13 84.4026 34.13H83.0655V35.8321H83.0626Z" fill="#3E3E3E"/>
<path d="M88.7657 36.4138H88.0479V31.3682H88.7657V33.4072H91.5778V31.3682H92.2956V36.4138H91.5778V34.0206H88.7657V36.4138Z" fill="#3E3E3E"/>
<path d="M99.0493 33.8909C99.0493 34.2711 98.9846 34.6224 98.8551 34.9479C98.7256 35.2733 98.5455 35.5527 98.3118 35.7888C98.081 36.025 97.8023 36.2122 97.4786 36.3446C97.1549 36.4771 96.8002 36.5434 96.4145 36.5434C96.0289 36.5434 95.6827 36.4771 95.3618 36.3446C95.038 36.2122 94.7622 36.0278 94.5285 35.7888C94.2977 35.5527 94.1147 35.2704 93.9852 34.9479C93.8558 34.6253 93.791 34.2711 93.791 33.8909C93.791 33.5108 93.8558 33.1566 93.9852 32.834C94.1147 32.5115 94.2949 32.2292 94.5285 31.9931C94.7622 31.7569 95.038 31.5726 95.3618 31.4372C95.6855 31.3048 96.0373 31.2385 96.4145 31.2385C96.7917 31.2385 97.1549 31.3048 97.4786 31.4372C97.8023 31.5697 98.0782 31.754 98.3118 31.9931C98.5455 32.2321 98.7256 32.5115 98.8551 32.834C98.9846 33.1566 99.0493 33.5108 99.0493 33.8909ZM98.2921 33.8909C98.2921 33.6116 98.2471 33.3466 98.1598 33.099C98.0725 32.8513 97.9459 32.6353 97.7854 32.451C97.625 32.2667 97.4279 32.1227 97.1943 32.0132C96.9635 31.9067 96.7017 31.8519 96.4145 31.8519C96.1274 31.8519 95.8684 31.9067 95.6404 32.0132C95.4124 32.1198 95.2182 32.2667 95.0549 32.451C94.8945 32.6353 94.7678 32.8484 94.6805 33.099C94.5933 33.3466 94.5482 33.6116 94.5482 33.8909C94.5482 34.1703 94.5933 34.4352 94.6805 34.6829C94.7678 34.9306 94.8917 35.1466 95.0549 35.3309C95.2154 35.5152 95.4124 35.6592 95.6404 35.7629C95.8684 35.8666 96.1274 35.9184 96.4145 35.9184C96.7017 35.9184 96.9635 35.8666 97.1943 35.7629C97.4251 35.6592 97.6222 35.5152 97.7854 35.3309C97.9459 35.1466 98.0725 34.9335 98.1598 34.6829C98.2471 34.4352 98.2921 34.1703 98.2921 33.8909Z" fill="#3E3E3E"/>
<path d="M101.262 36.4138H100.544V31.3682H103.601V31.9816H101.262V36.4109V36.4138Z" fill="#3E3E3E"/>
<path d="M107.983 36.4138H107.266V31.3682H110.323V31.9816H107.983V36.4109V36.4138Z" fill="#3E3E3E"/>
<path d="M116.296 33.8909C116.296 34.2711 116.232 34.6224 116.102 34.9479C115.973 35.2733 115.793 35.5527 115.559 35.7888C115.328 36.025 115.049 36.2122 114.726 36.3446C114.402 36.4771 114.047 36.5434 113.662 36.5434C113.276 36.5434 112.93 36.4771 112.609 36.3446C112.285 36.2122 112.009 36.0278 111.776 35.7888C111.545 35.5527 111.362 35.2704 111.232 34.9479C111.103 34.6253 111.038 34.2711 111.038 33.8909C111.038 33.5108 111.103 33.1566 111.232 32.834C111.362 32.5115 111.542 32.2292 111.776 31.9931C112.009 31.7569 112.285 31.5726 112.609 31.4372C112.933 31.3048 113.284 31.2385 113.662 31.2385C114.039 31.2385 114.402 31.3048 114.726 31.4372C115.049 31.5697 115.325 31.754 115.559 31.9931C115.793 32.2321 115.973 32.5115 116.102 32.834C116.232 33.1566 116.296 33.5108 116.296 33.8909ZM115.539 33.8909C115.539 33.6116 115.494 33.3466 115.407 33.099C115.32 32.8513 115.193 32.6353 115.032 32.451C114.872 32.2667 114.675 32.1227 114.441 32.0132C114.211 31.9067 113.949 31.8519 113.662 31.8519C113.374 31.8519 113.116 31.9067 112.888 32.0132C112.659 32.1198 112.465 32.2667 112.302 32.451C112.142 32.6353 112.015 32.8484 111.928 33.099C111.84 33.3466 111.795 33.6116 111.795 33.8909C111.795 34.1703 111.84 34.4352 111.928 34.6829C112.015 34.9306 112.139 35.1466 112.302 35.3309C112.462 35.5152 112.659 35.6592 112.888 35.7629C113.116 35.8666 113.374 35.9184 113.662 35.9184C113.949 35.9184 114.211 35.8666 114.441 35.7629C114.672 35.6592 114.869 35.5152 115.032 35.3309C115.193 35.1466 115.32 34.9335 115.407 34.6829C115.494 34.4352 115.539 34.1703 115.539 33.8909Z" fill="#3E3E3E"/>
<path d="M120.049 36.4138H117.794V31.3682H119.922C120.547 31.3682 121.011 31.492 121.313 31.7397C121.614 31.9873 121.766 32.3157 121.766 32.7246C121.766 32.9118 121.738 33.0673 121.681 33.194C121.625 33.3208 121.546 33.4244 121.445 33.508C121.344 33.5915 121.225 33.6577 121.093 33.7067C120.961 33.7556 120.82 33.8046 120.671 33.8478C120.854 33.8622 121.026 33.8939 121.186 33.9457C121.346 33.9947 121.49 34.0695 121.614 34.1675C121.738 34.2654 121.833 34.3863 121.904 34.5332C121.974 34.6801 122.011 34.8586 122.011 35.066C122.011 35.4749 121.845 35.8033 121.515 36.048C121.186 36.2928 120.696 36.4138 120.052 36.4138H120.049ZM119.88 33.6001C120.232 33.6001 120.508 33.5454 120.707 33.4331C120.907 33.3208 121.009 33.099 121.009 32.7649C121.009 32.5777 120.969 32.428 120.893 32.3214C120.814 32.212 120.707 32.1313 120.567 32.0766C120.426 32.0219 120.257 31.9873 120.06 31.9729C119.863 31.9585 119.646 31.9499 119.407 31.9499H118.512V33.6001H119.883H119.88ZM118.509 35.8321H119.427C119.686 35.8321 119.925 35.8263 120.142 35.8148C120.358 35.8033 120.55 35.7716 120.71 35.7169C120.871 35.6621 120.997 35.5786 121.09 35.4634C121.18 35.3482 121.228 35.1841 121.228 34.9738C121.228 34.6254 121.104 34.3979 120.854 34.2913C120.603 34.1819 120.268 34.13 119.849 34.13H118.512V35.8321H118.509Z" fill="#3E3E3E"/>
<path d="M128.434 33.8909C128.434 34.2711 128.369 34.6224 128.24 34.9479C128.11 35.2733 127.93 35.5527 127.697 35.7888C127.466 36.025 127.187 36.2122 126.863 36.3446C126.54 36.4771 126.185 36.5434 125.799 36.5434C125.414 36.5434 125.067 36.4771 124.747 36.3446C124.423 36.2122 124.147 36.0278 123.913 35.7888C123.682 35.5527 123.5 35.2704 123.37 34.9479C123.241 34.6253 123.176 34.2711 123.176 33.8909C123.176 33.5108 123.241 33.1566 123.37 32.834C123.5 32.5115 123.68 32.2292 123.913 31.9931C124.147 31.7569 124.423 31.5726 124.747 31.4372C125.07 31.3048 125.422 31.2385 125.799 31.2385C126.177 31.2385 126.54 31.3048 126.863 31.4372C127.187 31.5697 127.463 31.754 127.697 31.9931C127.93 32.2321 128.11 32.5115 128.24 32.834C128.369 33.1566 128.434 33.5108 128.434 33.8909ZM127.677 33.8909C127.677 33.6116 127.632 33.3466 127.545 33.099C127.457 32.8513 127.331 32.6353 127.17 32.451C127.01 32.2667 126.813 32.1227 126.579 32.0132C126.348 31.9067 126.086 31.8519 125.799 31.8519C125.512 31.8519 125.253 31.9067 125.025 32.0132C124.797 32.1198 124.603 32.2667 124.44 32.451C124.279 32.6353 124.153 32.8484 124.065 33.099C123.978 33.3466 123.933 33.6116 123.933 33.8909C123.933 34.1703 123.978 34.4352 124.065 34.6829C124.153 34.9306 124.276 35.1466 124.44 35.3309C124.6 35.5152 124.797 35.6592 125.025 35.7629C125.253 35.8666 125.512 35.9184 125.799 35.9184C126.086 35.9184 126.348 35.8666 126.579 35.7629C126.81 35.6592 127.007 35.5152 127.17 35.3309C127.331 35.1466 127.457 34.9335 127.545 34.6829C127.632 34.4352 127.677 34.1703 127.677 33.8909Z" fill="#3E3E3E"/>
<path d="M130.689 38.9999H129.974V31.3681H130.689V32.2407H130.72C130.922 31.9095 131.195 31.6619 131.536 31.492C131.877 31.322 132.223 31.2385 132.575 31.2385C132.96 31.2385 133.309 31.3076 133.622 31.443C133.934 31.5784 134.202 31.7656 134.421 32.0046C134.641 32.2436 134.815 32.523 134.936 32.8455C135.06 33.1681 135.119 33.5165 135.119 33.8909C135.119 34.2653 135.057 34.6138 134.936 34.9364C134.813 35.2589 134.641 35.5411 134.421 35.7773C134.199 36.0134 133.934 36.2006 133.622 36.3389C133.309 36.4771 132.96 36.5434 132.575 36.5434C132.223 36.5434 131.877 36.4598 131.536 36.2899C131.195 36.12 130.922 35.8781 130.72 35.5613H130.689V38.9999ZM134.365 33.8909C134.365 33.6116 134.323 33.3466 134.238 33.099C134.154 32.8513 134.033 32.6353 133.875 32.451C133.718 32.2667 133.523 32.1227 133.29 32.0132C133.056 31.9038 132.794 31.8519 132.499 31.8519C132.226 31.8519 131.972 31.9038 131.739 32.0075C131.508 32.1111 131.308 32.2551 131.139 32.4395C130.97 32.6238 130.838 32.8369 130.745 33.0874C130.652 33.338 130.604 33.6029 130.604 33.8909C130.604 34.1789 130.652 34.4468 130.745 34.6944C130.841 34.9421 130.97 35.1552 131.139 35.3367C131.308 35.5152 131.508 35.6592 131.739 35.7629C131.969 35.8666 132.223 35.9184 132.499 35.9184C132.794 35.9184 133.056 35.8666 133.29 35.7629C133.52 35.6592 133.718 35.5152 133.875 35.3309C134.033 35.1466 134.154 34.9335 134.238 34.6829C134.323 34.4352 134.365 34.1703 134.365 33.8909Z" fill="#3E3E3E"/>
<path d="M139.773 33.1479C139.773 32.713 139.661 32.3876 139.435 32.1745C139.21 31.9614 138.884 31.8519 138.456 31.8519C138.16 31.8519 137.887 31.9067 137.634 32.0132C137.381 32.1198 137.167 32.2638 136.992 32.4452L136.592 31.9614C136.795 31.754 137.065 31.5812 137.397 31.443C137.73 31.3076 138.11 31.2385 138.529 31.2385C138.796 31.2385 139.044 31.276 139.278 31.3508C139.509 31.4257 139.714 31.5409 139.889 31.6907C140.063 31.8404 140.201 32.0334 140.3 32.2609C140.398 32.4913 140.446 32.7591 140.446 33.0702V35.2791C140.446 35.472 140.454 35.6736 140.469 35.8839C140.483 36.0941 140.502 36.2669 140.53 36.4109H139.889C139.866 36.2899 139.849 36.1546 139.835 36.0134C139.821 35.8723 139.815 35.7283 139.815 35.593H139.793C139.568 35.9299 139.314 36.1747 139.03 36.3216C138.746 36.4685 138.402 36.5434 138.003 36.5434C137.814 36.5434 137.617 36.5174 137.417 36.4627C137.217 36.408 137.034 36.3216 136.868 36.1978C136.702 36.0739 136.567 35.9155 136.457 35.7226C136.347 35.5267 136.294 35.2906 136.294 35.0084C136.294 34.6196 136.39 34.3114 136.584 34.0839C136.778 33.8564 137.034 33.6865 137.358 33.5741C137.682 33.4618 138.05 33.3898 138.47 33.3582C138.889 33.3265 139.323 33.3092 139.77 33.3092V33.1479H139.773ZM139.562 33.8909C139.267 33.8909 138.971 33.9025 138.673 33.9284C138.374 33.9543 138.104 34.0033 137.862 34.0781C137.62 34.153 137.42 34.2625 137.268 34.4064C137.113 34.5504 137.037 34.7405 137.037 34.9767C137.037 35.1552 137.071 35.3079 137.138 35.4288C137.206 35.5498 137.296 35.6506 137.409 35.7255C137.521 35.8003 137.645 35.8551 137.783 35.8867C137.921 35.9184 138.059 35.9357 138.2 35.9357C138.453 35.9357 138.678 35.8896 138.875 35.8003C139.072 35.7111 139.238 35.5872 139.371 35.4346C139.503 35.2791 139.607 35.1034 139.678 34.9018C139.748 34.7002 139.782 34.49 139.782 34.2653V33.8881H139.571L139.562 33.8909Z" fill="#3E3E3E"/>
<path d="M1.40434 33.557C20.5122 29.934 39.8762 27.8806 59.2712 26.7949C78.9082 25.6948 98.5819 25.5364 118.244 25.7178C129.414 25.8215 140.584 26.0346 151.753 26.2563C152.395 26.2679 153.589 26.0202 153.91 25.3578C154.231 24.6954 153.631 24.4333 153.037 24.4218C133.147 24.0273 113.251 23.6558 93.3545 23.8977C73.6865 24.1367 54.0072 24.9719 34.4377 27.0339C23.527 28.183 12.6557 29.7295 1.86881 31.7772C1.31989 31.8808 0.103838 32.1631 0.00812949 32.8859C-0.0875786 33.6088 0.953951 33.6434 1.40434 33.5598V33.557Z" fill="#3E3E3E"/>
</svg>
