<svg width="26" height="19" viewBox="0 0 26 19" fill="none" xmlns="http://www.w3.org/2000/svg">
<path fill-rule="evenodd" clip-rule="evenodd" d="M6.55898 0.254513C10.8462 -0.0848377 15.153 -0.0848377 19.4402 0.254513L22.3192 0.48339C23.099 0.544896 23.836 0.868714 24.4128 1.40324C24.9895 1.93776 25.3728 2.65223 25.5016 3.43278C26.1661 7.45112 26.1661 11.5514 25.5016 15.5684C25.3729 16.3488 24.9897 17.0631 24.4133 17.5976C23.8368 18.1321 23.1001 18.456 22.3205 18.5178L19.4415 18.7454C15.1539 19.0849 10.8466 19.0849 6.55898 18.7454L3.67992 18.5178C2.90015 18.4563 2.16316 18.1325 1.58641 17.598C1.00966 17.0635 0.626339 16.349 0.497535 15.5684C-0.165845 11.5511 -0.165845 7.45016 0.497535 3.43278C0.626282 2.65243 1.00942 1.93812 1.58591 1.40362C2.1624 0.869116 2.89909 0.545174 3.67864 0.48339L6.55769 0.255813L6.55898 0.254513ZM10.429 12.7127V6.28853C10.4291 6.21959 10.4473 6.15191 10.4816 6.09237C10.516 6.03284 10.5653 5.98358 10.6246 5.94962C10.6839 5.91566 10.7511 5.8982 10.8192 5.89902C10.8873 5.89985 10.954 5.91893 11.0125 5.95432L16.3041 9.1664C16.361 9.2011 16.4081 9.2501 16.4408 9.30866C16.4736 9.36722 16.4907 9.43334 16.4907 9.50061C16.4907 9.56787 16.4736 9.63399 16.4408 9.69255C16.4081 9.75111 16.361 9.80012 16.3041 9.83482L11.0125 13.0469C10.954 13.0823 10.8873 13.1014 10.8192 13.1022C10.7511 13.103 10.6839 13.0856 10.6246 13.0516C10.5653 13.0176 10.516 12.9684 10.4816 12.9088C10.4473 12.8493 10.4291 12.7816 10.429 12.7127Z" fill="white"/>
</svg>
