<svg width="21" height="15" viewBox="0 0 21 15" fill="none" xmlns="http://www.w3.org/2000/svg">
<path fill-rule="evenodd" clip-rule="evenodd" d="M5.48884 0.39005C8.82441 0.129098 12.1753 0.129098 15.5108 0.39005L17.7508 0.56605C18.3575 0.613346 18.9309 0.862354 19.3797 1.27339C19.8284 1.68442 20.1266 2.23383 20.2268 2.83405C20.7438 5.92405 20.7438 9.07705 20.2268 12.166C20.1267 12.7661 19.8286 13.3154 19.3801 13.7264C18.9315 14.1374 18.3584 14.3865 17.7518 14.434L15.5118 14.609C12.1759 14.8701 8.82474 14.8701 5.48884 14.609L3.24884 14.434C2.64215 14.3868 2.06875 14.1377 1.62002 13.7267C1.17129 13.3157 0.873054 12.7663 0.772841 12.166C0.256709 9.07679 0.256709 5.92331 0.772841 2.83405C0.87301 2.23398 1.1711 1.6847 1.61963 1.27368C2.06816 0.862663 2.64133 0.61356 3.24784 0.56605L5.48784 0.39105L5.48884 0.39005ZM8.49984 9.97005V5.03005C8.49992 4.97703 8.51405 4.92499 8.54079 4.87921C8.56752 4.83343 8.60592 4.79555 8.65205 4.76943C8.69819 4.74332 8.75042 4.72989 8.80343 4.73053C8.85645 4.73116 8.90834 4.74583 8.95384 4.77305L13.0708 7.24305C13.1152 7.26973 13.1518 7.30742 13.1773 7.35245C13.2027 7.39748 13.2161 7.44833 13.2161 7.50005C13.2161 7.55177 13.2027 7.60262 13.1773 7.64765C13.1518 7.69268 13.1152 7.73037 13.0708 7.75705L8.95384 10.227C8.90834 10.2543 8.85645 10.2689 8.80343 10.2696C8.75042 10.2702 8.69819 10.2568 8.65205 10.2307C8.60592 10.2045 8.56752 10.1667 8.54079 10.1209C8.51405 10.0751 8.49992 10.0231 8.49984 9.97005Z" fill="#219DD9"/>
</svg>
