<svg width="659" height="82" viewBox="0 0 659 82" fill="none" xmlns="http://www.w3.org/2000/svg">
<path opacity="0.9" d="M386.002 81.5394C381.069 81.5394 377.308 80.152 374.718 77.3773C372.128 74.5409 370.833 70.5022 370.833 65.2611V31.2246C370.833 25.9835 372.128 21.9756 374.718 19.2009C377.308 16.3645 381.069 14.9464 386.002 14.9464C390.935 14.9464 394.696 16.3645 397.286 19.2009C399.875 21.9756 401.17 25.9835 401.17 31.2246V36.7741H391.551V30.5772C391.551 26.3227 389.794 24.1954 386.279 24.1954C382.765 24.1954 381.007 26.3227 381.007 30.5772V66.001C381.007 70.1939 382.765 72.2903 386.279 72.2903C389.794 72.2903 391.551 70.1939 391.551 66.001V53.3298H386.464V44.0808H401.17V65.2611C401.17 70.5022 399.875 74.5409 397.286 77.3773C394.696 80.152 390.935 81.5394 386.002 81.5394Z" fill="#F7F7F7"/>
<path opacity="0.9" d="M349.247 81.5394C344.253 81.5394 340.43 80.1212 337.778 77.2848C335.127 74.4485 333.801 70.4405 333.801 65.2611V31.2246C333.801 26.0452 335.127 22.0373 337.778 19.2009C340.43 16.3645 344.253 14.9464 349.247 14.9464C354.242 14.9464 358.065 16.3645 360.716 19.2009C363.367 22.0373 364.693 26.0452 364.693 31.2246V65.2611C364.693 70.4405 363.367 74.4485 360.716 77.2848C358.065 80.1212 354.242 81.5394 349.247 81.5394ZM349.247 72.2903C352.762 72.2903 354.519 70.1631 354.519 65.9085V30.5772C354.519 26.3227 352.762 24.1954 349.247 24.1954C345.733 24.1954 343.975 26.3227 343.975 30.5772V65.9085C343.975 70.1631 345.733 72.2903 349.247 72.2903Z" fill="#F7F7F7"/>
<path opacity="0.9" d="M295.068 15.8712H307.832L317.728 54.6246H317.913V15.8712H326.978V80.6144H316.526L304.317 33.3518H304.132V80.6144H295.068V15.8712Z" fill="#F7F7F7"/>
<path opacity="0.9" d="M265.808 15.8712H279.589L290.133 80.6144H279.959L278.109 67.7582V67.9432H266.547L264.698 80.6144H255.264L265.808 15.8712ZM276.906 59.1566L272.374 27.155H272.189L267.75 59.1566H276.906Z" fill="#F7F7F7"/>
<path opacity="0.9" d="M222.567 15.8712H232.834L239.493 66.0934H239.678L246.337 15.8712H255.679L245.875 80.6144H232.371L222.567 15.8712Z" fill="#F7F7F7"/>
<path opacity="0.9" d="M203.105 81.5394C198.111 81.5394 194.288 80.1212 191.636 77.2848C188.985 74.4485 187.659 70.4405 187.659 65.2611V31.2246C187.659 26.0452 188.985 22.0373 191.636 19.2009C194.288 16.3645 198.111 14.9464 203.105 14.9464C208.1 14.9464 211.922 16.3645 214.574 19.2009C217.225 22.0373 218.551 26.0452 218.551 31.2246V65.2611C218.551 70.4405 217.225 74.4485 214.574 77.2848C211.922 80.1212 208.1 81.5394 203.105 81.5394ZM203.105 72.2903C206.62 72.2903 208.377 70.1631 208.377 65.9085V30.5772C208.377 26.3227 206.62 24.1954 203.105 24.1954C199.59 24.1954 197.833 26.3227 197.833 30.5772V65.9085C197.833 70.1631 199.59 72.2903 203.105 72.2903Z" fill="#F7F7F7"/>
<path opacity="0.9" d="M152.855 71.5503L171.723 25.1202H153.78V15.8711H182.637V24.9352L163.769 71.3653H182.637V80.6143H152.855V71.5503ZM155.815 0.887695H163.492L168.209 5.97466L172.926 0.887695H180.603L173.018 11.5241H163.399L155.815 0.887695Z" fill="#F7F7F7"/>
<path opacity="0.9" d="M125.266 15.8712H139.047L149.591 80.6144H139.417L137.567 67.7582V67.9432H126.006L124.156 80.6144H114.722L125.266 15.8712ZM136.365 59.1566L131.833 27.155H131.648L127.208 59.1566H136.365Z" fill="#F7F7F7"/>
<path opacity="0.9" d="M95.7055 81.5394C90.7727 81.5394 87.0114 80.152 84.4217 77.3773C81.832 74.5409 80.5371 70.5022 80.5371 65.2611V31.2246C80.5371 25.9835 81.832 21.9756 84.4217 19.2009C87.0114 16.3645 90.7727 14.9464 95.7055 14.9464C100.638 14.9464 104.4 16.3645 106.989 19.2009C109.579 21.9756 110.874 25.9835 110.874 31.2246V36.7741H101.255V30.5772C101.255 26.3227 99.4976 24.1954 95.983 24.1954C92.4684 24.1954 90.711 26.3227 90.711 30.5772V66.001C90.711 70.1939 92.4684 72.2903 95.983 72.2903C99.4976 72.2903 101.255 70.1939 101.255 66.001V53.3298H96.168V44.0808H110.874V65.2611C110.874 70.5022 109.579 74.5409 106.989 77.3773C104.4 80.152 100.638 81.5394 95.7055 81.5394Z" fill="#F7F7F7"/>
<path opacity="0.9" d="M41.8027 15.8712H54.5664L64.4629 54.6246H64.6478V15.8712H73.7119V80.6144H63.2605L51.0518 33.3518H50.8668V80.6144H41.8027V15.8712Z" fill="#F7F7F7"/>
<path opacity="0.9" d="M12.5439 15.3712H12.1187L12.0504 15.7908L1.5065 80.534L1.41198 81.1144H2H11.434H11.8663L11.9288 80.6866L13.7161 68.4432H24.4385L26.2 80.6856L26.2617 81.1144H26.6949H36.8688H37.4569L37.3623 80.534L26.8184 15.7908L26.7501 15.3712H26.3249H12.5439ZM15.0603 58.6566L19.0224 30.097L23.0669 58.6566H15.0603Z" stroke="white"/>
<path opacity="0.9" d="M641.011 81.5395C635.275 81.5395 630.902 80.1645 627.891 77.4145C624.88 74.6034 623.375 70.6006 623.375 65.4062V31.6728C623.375 26.4784 624.88 22.5062 627.891 19.7562C630.902 16.945 635.275 15.5395 641.011 15.5395C646.746 15.5395 651.119 16.945 654.13 19.7562C657.141 22.5062 658.647 26.4784 658.647 31.6728V37.1728H647.463V31.0312C647.463 26.8145 645.42 24.7062 641.333 24.7062C637.247 24.7062 635.204 26.8145 635.204 31.0312V66.1395C635.204 70.2951 637.247 72.3728 641.333 72.3728C645.42 72.3728 647.463 70.2951 647.463 66.1395V53.5812H641.548V44.4145H658.647V65.4062C658.647 70.6006 657.141 74.6034 654.13 77.4145C651.119 80.1645 646.746 81.5395 641.011 81.5395Z" fill="#F7F7F7"/>
<path opacity="0.9" d="M598.276 81.5395C592.469 81.5395 588.024 80.1339 584.941 77.3228C581.858 74.5117 580.317 70.5395 580.317 65.4062V31.6728C580.317 26.5395 581.858 22.5673 584.941 19.7562C588.024 16.945 592.469 15.5395 598.276 15.5395C604.083 15.5395 608.527 16.945 611.61 19.7562C614.693 22.5673 616.234 26.5395 616.234 31.6728V65.4062C616.234 70.5395 614.693 74.5117 611.61 77.3228C608.527 80.1339 604.083 81.5395 598.276 81.5395ZM598.276 72.3728C602.362 72.3728 604.405 70.2645 604.405 66.0478V31.0312C604.405 26.8145 602.362 24.7062 598.276 24.7062C594.189 24.7062 592.146 26.8145 592.146 31.0312V66.0478C592.146 70.2645 594.189 72.3728 598.276 72.3728Z" fill="#F7F7F7"/>
<path opacity="0.9" d="M535.287 16.4555H550.127L561.633 54.8638H561.848V16.4555H572.387V80.6222H560.235L546.04 33.7805H545.825V80.6222H535.287V16.4555Z" fill="#F7F7F7"/>
<path opacity="0.9" d="M491.106 16.4555H503.043L510.785 66.2305H511L518.743 16.4555H529.604L518.205 80.6222H502.505L491.106 16.4555Z" fill="#F7F7F7"/>
<path opacity="0.9" d="M463.248 16.4555H479.272L491.531 80.6222H479.702L477.551 67.8805V68.0638H464.109L461.958 80.6222H450.989L463.248 16.4555ZM476.153 59.3555L470.884 27.6388H470.669L465.507 59.3555H476.153Z" fill="#F7F7F7"/>
<path opacity="0.9" d="M422.67 80.6222V81.0475L423.09 81.1157C424.631 81.3658 426.487 81.4888 428.655 81.4888C434.521 81.4888 438.968 80.1944 441.895 77.5093C444.902 74.8168 446.361 70.7477 446.361 65.4055V16.4555V15.9555H445.861H434.032H433.532V16.4555V65.6805C433.532 67.6641 432.987 69.065 431.981 69.9798C430.963 70.8441 429.349 71.3222 427.042 71.3222C425.636 71.3222 424.381 71.2022 423.275 70.9665L422.67 70.8377V71.4555V80.6222Z" stroke="white"/>
</svg>
