<svg width="658" height="69" viewBox="0 0 658 69" fill="none" xmlns="http://www.w3.org/2000/svg">
<path opacity="0.9" d="M220.95 2.45557H234.608L245.058 66.6222H234.975L233.141 53.8806V54.0639H221.683L219.85 66.6222H210.5L220.95 2.45557ZM231.95 45.3556L227.458 13.6389H227.275L222.875 45.3556H231.95Z" fill="#F7F7F7"/>
<path opacity="0.9" d="M181.021 2.45557H195.871C200.882 2.45557 204.64 3.80001 207.146 6.4889C209.652 9.17779 210.904 13.1195 210.904 18.3139V24.6389C210.904 29.8333 209.652 33.775 207.146 36.4639C204.64 39.1528 200.882 40.4972 195.871 40.4972H191.104V66.6222H181.021V2.45557ZM195.871 31.3306C197.521 31.3306 198.743 30.8722 199.538 29.9556C200.393 29.0389 200.821 27.4806 200.821 25.2806V17.6722C200.821 15.4722 200.393 13.9139 199.538 12.9972C198.743 12.0806 197.521 11.6222 195.871 11.6222H191.104V31.3306H195.871Z" fill="#F7F7F7"/>
<path opacity="0.9" d="M158.807 67.5389C153.918 67.5389 150.19 66.1639 147.623 63.4139C145.057 60.6028 143.773 56.6 143.773 51.4056V2.45557H153.857V52.1389C153.857 54.3389 154.285 55.9278 155.14 56.9056C156.057 57.8834 157.34 58.3722 158.99 58.3722C160.64 58.3722 161.893 57.8834 162.748 56.9056C163.665 55.9278 164.123 54.3389 164.123 52.1389V2.45557H173.84V51.4056C173.84 56.6 172.557 60.6028 169.99 63.4139C167.423 66.1639 163.696 67.5389 158.807 67.5389Z" fill="#F7F7F7"/>
<path opacity="0.9" d="M118.632 11.6222H108.091V2.45557H139.257V11.6222H128.716V66.6222H118.632V11.6222Z" fill="#F7F7F7"/>
<path opacity="0.9" d="M89.7504 67.5396C84.8615 67.5396 81.1643 66.1646 78.6587 63.4146C76.1532 60.6034 74.9004 56.6007 74.9004 51.4062V47.7396H84.4337V52.1396C84.4337 56.2951 86.1754 58.3729 89.6587 58.3729C91.3698 58.3729 92.6532 57.884 93.5087 56.9062C94.4254 55.8673 94.8837 54.2173 94.8837 51.9562C94.8837 49.2673 94.2726 46.9146 93.0504 44.8979C91.8282 42.8201 89.5671 40.3451 86.2671 37.4729C82.1115 33.8062 79.2087 30.5062 77.5587 27.5729C75.9087 24.5784 75.0837 21.2173 75.0837 17.4896C75.0837 12.4173 76.3671 8.50622 78.9337 5.75622C81.5004 2.94511 85.2282 1.53955 90.1171 1.53955C94.9448 1.53955 98.5809 2.94511 101.025 5.75622C103.531 8.50622 104.784 12.4784 104.784 17.6729V20.3312H95.2504V17.0312C95.2504 14.8312 94.8226 13.2423 93.9671 12.2645C93.1115 11.2257 91.8587 10.7062 90.2087 10.7062C86.8476 10.7062 85.1671 12.7534 85.1671 16.8479C85.1671 19.1701 85.7782 21.3396 87.0004 23.3562C88.2837 25.3729 90.5754 27.8173 93.8754 30.6896C98.0921 34.3562 100.995 37.6868 102.584 40.6812C104.173 43.6757 104.967 47.1896 104.967 51.2229C104.967 56.4784 103.653 60.5118 101.025 63.3229C98.4587 66.134 94.7004 67.5396 89.7504 67.5396Z" fill="#F7F7F7"/>
<path opacity="0.9" d="M47.9105 2.45557H61.5688L72.0188 66.6222H61.9355L60.1021 53.8806V54.0639H48.6438L46.8105 66.6222H37.4604L47.9105 2.45557ZM58.9105 45.3556L54.4188 13.6389H54.2355L49.8355 45.3556H58.9105Z" fill="#F7F7F7"/>
<path opacity="0.9" d="M1 1.95557H0.5V2.45557V66.6222V67.1222H1H9.98334H10.4833V66.6222V23.0056L21.7826 66.7473L21.8794 67.1222H22.2667H32.625H33.125V66.6222V2.45557V1.95557H32.625H23.6417H23.1417V2.45557V37.6031L14.1345 2.33185L14.0384 1.95557H13.65H1Z" stroke="white"/>
<path opacity="0.9" d="M642.403 67.5392C637.515 67.5392 633.787 66.1642 631.22 63.4142C628.653 60.6031 627.37 56.6004 627.37 51.4059V17.6727C627.37 12.4782 628.653 8.50602 631.22 5.75602C633.787 2.94492 637.515 1.53937 642.403 1.53937C647.292 1.53937 651.02 2.94492 653.587 5.75602C656.153 8.50602 657.437 12.4782 657.437 17.6727V23.1727H647.903V17.031C647.903 12.8143 646.162 10.706 642.678 10.706C639.195 10.706 637.453 12.8143 637.453 17.031V52.1392C637.453 56.2948 639.195 58.3726 642.678 58.3726C646.162 58.3726 647.903 56.2948 647.903 52.1392V39.5809H642.862V30.4143H657.437V51.4059C657.437 56.6004 656.153 60.6031 653.587 63.4142C651.02 66.1642 647.292 67.5392 642.403 67.5392Z" fill="#F7F7F7"/>
<path opacity="0.9" d="M605.974 67.5392C601.024 67.5392 597.235 66.1337 594.608 63.3226C591.98 60.5115 590.666 56.5392 590.666 51.4059V17.6727C590.666 12.5393 591.98 8.56713 594.608 5.75602C597.235 2.94492 601.024 1.53937 605.974 1.53937C610.924 1.53937 614.713 2.94492 617.341 5.75602C619.969 8.56713 621.283 12.5393 621.283 17.6727V51.4059C621.283 56.5392 619.969 60.5115 617.341 63.3226C614.713 66.1337 610.924 67.5392 605.974 67.5392ZM605.974 58.3726C609.458 58.3726 611.199 56.2642 611.199 52.0476V17.031C611.199 12.8143 609.458 10.706 605.974 10.706C602.491 10.706 600.749 12.8143 600.749 17.031V52.0476C600.749 56.2642 602.491 58.3726 605.974 58.3726Z" fill="#F7F7F7"/>
<path opacity="0.9" d="M552.278 2.45618H564.928L574.737 40.8644H574.92V2.45618H583.903V66.6227H573.545L561.445 19.7811H561.262V66.6227H552.278V2.45618Z" fill="#F7F7F7"/>
<path opacity="0.9" d="M518.978 2.45618H546.477V11.6228H529.061V28.5811H542.902V37.7478H529.061V57.4561H546.477V66.6227H518.978V2.45618Z" fill="#F7F7F7"/>
<path opacity="0.9" d="M497.176 2.45618C502.187 2.45618 505.945 3.80062 508.451 6.4895C510.956 9.17839 512.209 13.12 512.209 18.3145V50.7644C512.209 55.9588 510.956 59.9005 508.451 62.5894C505.945 65.2783 502.187 66.6227 497.176 66.6227H481.776V37.4728H477.376V28.8561H481.776V2.45618H497.176ZM502.126 17.8561C502.126 15.6561 501.668 14.0673 500.751 13.0895C499.895 12.1117 498.643 11.6228 496.993 11.6228H491.859V28.8561H496.993V37.4728H491.859V57.4561H496.993C498.643 57.4561 499.895 56.9672 500.751 55.9894C501.668 55.0116 502.126 53.4227 502.126 51.2227V17.8561Z" fill="#F7F7F7"/>
<path opacity="0.9" d="M458.092 67.5392C453.142 67.5392 449.354 66.1337 446.726 63.3226C444.098 60.5115 442.784 56.5392 442.784 51.4059V17.6727C442.784 12.5393 444.098 8.56713 446.726 5.75602C449.354 2.94492 453.142 1.53937 458.092 1.53937C463.042 1.53937 466.831 2.94492 469.459 5.75602C472.087 8.56713 473.401 12.5393 473.401 17.6727V51.4059C473.401 56.5392 472.087 60.5115 469.459 63.3226C466.831 66.1337 463.042 67.5392 458.092 67.5392ZM458.092 58.3726C461.576 58.3726 463.317 56.2642 463.317 52.0476V17.031C463.317 12.8143 461.576 10.706 458.092 10.706C454.609 10.706 452.867 12.8143 452.867 17.031V52.0476C452.867 56.2642 454.609 58.3726 458.092 58.3726Z" fill="#F7F7F7"/>
<path opacity="0.9" d="M406.455 2.45618H421.671C426.866 2.45618 430.655 3.6784 433.038 6.12284C435.421 8.50616 436.613 12.2034 436.613 17.2145V19.7811C436.613 23.0811 436.063 25.77 434.963 27.8478C433.924 29.9256 432.305 31.4228 430.105 32.3394V32.5228C435.116 34.2339 437.621 38.695 437.621 45.9061V51.4061C437.621 56.3561 436.307 60.1449 433.68 62.7727C431.113 65.3394 427.324 66.6227 422.313 66.6227H406.455V2.45618ZM420.48 28.5811C422.496 28.5811 423.993 28.0617 424.971 27.0228C426.01 25.9839 426.53 24.2422 426.53 21.7978V18.2228C426.53 15.9006 426.102 14.22 425.246 13.1812C424.452 12.1423 423.168 11.6228 421.396 11.6228H416.538V28.5811H420.48ZM422.313 57.4561C424.085 57.4561 425.399 56.9977 426.255 56.0811C427.11 55.1033 427.538 53.4533 427.538 51.1311V45.5394C427.538 42.6061 427.018 40.5894 425.98 39.4894C425.002 38.3283 423.352 37.7478 421.03 37.7478H416.538V57.4561H422.313Z" fill="#F7F7F7"/>
<path opacity="0.9" d="M384.328 67.5392C379.378 67.5392 375.589 66.1337 372.961 63.3226C370.333 60.5115 369.02 56.5392 369.02 51.4059V17.6727C369.02 12.5393 370.333 8.56713 372.961 5.75602C375.589 2.94492 379.378 1.53937 384.328 1.53937C389.278 1.53937 393.067 2.94492 395.694 5.75602C398.322 8.56713 399.636 12.5393 399.636 17.6727V51.4059C399.636 56.5392 398.322 60.5115 395.694 63.3226C393.067 66.1337 389.278 67.5392 384.328 67.5392ZM384.328 58.3726C387.811 58.3726 389.553 56.2642 389.553 52.0476V17.031C389.553 12.8143 387.811 10.706 384.328 10.706C380.845 10.706 379.103 12.8143 379.103 17.031V52.0476C379.103 56.2642 380.845 58.3726 384.328 58.3726Z" fill="#F7F7F7"/>
<path opacity="0.9" d="M338.601 2.45618H348.684V57.4561H365.276V66.6227H338.601V2.45618Z" fill="#F7F7F7"/>
<path opacity="0.9" d="M317.604 67.5392C312.715 67.5392 309.018 66.1642 306.513 63.4142C304.007 60.6031 302.754 56.6004 302.754 51.4059V47.7393H312.288V52.1392C312.288 56.2948 314.029 58.3726 317.513 58.3726C319.224 58.3726 320.507 57.8837 321.363 56.9059C322.279 55.867 322.738 54.217 322.738 51.9559C322.738 49.267 322.127 46.9143 320.904 44.8976C319.682 42.8198 317.421 40.3448 314.121 37.4726C309.965 33.806 307.063 30.506 305.413 27.5726C303.763 24.5782 302.938 21.2171 302.938 17.4893C302.938 12.4171 304.221 8.50602 306.788 5.75602C309.354 2.94492 313.082 1.53937 317.971 1.53937C322.799 1.53937 326.435 2.94492 328.879 5.75602C331.385 8.50602 332.638 12.4782 332.638 17.6727V20.331H323.104V17.031C323.104 14.831 322.677 13.2421 321.821 12.2643C320.965 11.2255 319.713 10.706 318.063 10.706C314.702 10.706 313.021 12.7532 313.021 16.8477C313.021 19.1699 313.632 21.3393 314.854 23.356C316.138 25.3726 318.429 27.8171 321.729 30.6893C325.946 34.356 328.849 37.6865 330.438 40.6809C332.027 43.6754 332.821 47.1893 332.821 51.2226C332.821 56.4781 331.507 60.5115 328.879 63.3226C326.313 66.1337 322.554 67.5392 317.604 67.5392Z" fill="#F7F7F7"/>
<path opacity="0.9" d="M270.634 63.6642C273.382 66.6034 277.319 68.0394 282.366 68.0394C287.412 68.0394 291.35 66.6034 294.098 63.6642C296.838 60.7331 298.174 56.6229 298.174 51.4061V17.6728C298.174 12.456 296.838 8.34589 294.098 5.41477C291.35 2.4755 287.412 1.03955 282.366 1.03955C277.319 1.03955 273.382 2.4755 270.634 5.41477C267.894 8.34589 266.558 12.456 266.558 17.6728V51.4061C266.558 56.6229 267.894 60.7331 270.634 63.6642ZM287.091 52.0478C287.091 54.0998 286.665 55.5458 285.899 56.4731C285.148 57.382 284.003 57.8728 282.366 57.8728C280.729 57.8728 279.584 57.382 278.833 56.4731C278.067 55.5458 277.641 54.0998 277.641 52.0478V17.0312C277.641 14.9792 278.067 13.5331 278.833 12.6059C279.584 11.6969 280.729 11.2062 282.366 11.2062C284.003 11.2062 285.148 11.6969 285.899 12.6059C286.665 13.5331 287.091 14.9792 287.091 17.0312V52.0478Z" stroke="white"/>
</svg>
