<svg width="455" height="69" viewBox="0 0 455 69" fill="none" xmlns="http://www.w3.org/2000/svg">
<path opacity="0.9" d="M233.969 2.4563H244.052V66.623H233.969V2.4563Z" fill="#F7F7F7"/>
<path opacity="0.9" d="M190.287 2.4563H203.946L214.396 66.623H204.312L202.479 53.8813V54.0646H191.021L189.187 66.623H179.837L190.287 2.4563ZM201.287 45.3563L196.796 13.6396H196.612L192.212 45.3563H201.287Z" fill="#F7F7F7"/>
<path opacity="0.9" d="M144.001 2.4563H154.084V28.5813H164.901V2.4563H174.984V66.623H164.901V37.748H154.084V66.623H144.001V2.4563Z" fill="#F7F7F7"/>
<path opacity="0.9" d="M115.003 2.4563H128.661L139.111 66.623H129.028L127.194 53.8813V54.0646H115.736L113.903 66.623H104.553L115.003 2.4563ZM126.003 45.3563L121.511 13.6396H121.328L116.928 45.3563H126.003Z" fill="#F7F7F7"/>
<path opacity="0.9" d="M70.2393 2.4563H85.1809C90.3754 2.4563 94.1643 3.67852 96.5476 6.12297C98.9309 8.5063 100.123 12.2035 100.123 17.2146V21.1563C100.123 27.8174 97.9226 32.0341 93.5226 33.8063V33.9896C95.967 34.723 97.6782 36.2202 98.6559 38.4813C99.6948 40.7424 100.214 43.7674 100.214 47.5563V58.8313C100.214 60.6646 100.275 62.1619 100.398 63.323C100.52 64.423 100.825 65.523 101.314 66.623H91.0476C90.6809 65.5841 90.4365 64.6063 90.3143 63.6896C90.192 62.773 90.1309 61.123 90.1309 58.7396V47.0063C90.1309 44.073 89.642 42.0257 88.6643 40.8646C87.7476 39.7035 86.1282 39.123 83.8059 39.123H80.3226V66.623H70.2393V2.4563ZM83.9893 29.9563C86.0059 29.9563 87.5032 29.4369 88.4809 28.398C89.5198 27.3591 90.0393 25.6174 90.0393 23.173V18.223C90.0393 15.9007 89.6115 14.2202 88.7559 13.1813C87.9615 12.1424 86.6781 11.623 84.9059 11.623H80.3226V29.9563H83.9893Z" fill="#F7F7F7"/>
<path opacity="0.9" d="M44.7336 11.623H34.1919V2.4563H65.3586V11.623H54.8169V66.623H44.7336V11.623Z" fill="#F7F7F7"/>
<path opacity="0.9" d="M4.38506 63.7473L4.38874 63.7513C7.01642 66.6353 10.867 68.0396 15.85 68.0396C20.8947 68.0396 24.8046 66.6045 27.4923 63.6621C30.2328 60.7291 31.5667 56.5569 31.5667 51.2229C31.5667 47.1233 30.7588 43.526 29.125 40.4469C27.4947 37.3744 24.5401 33.9966 20.3033 30.3124C17.0173 27.4524 14.7698 25.0471 13.5248 23.0924C12.351 21.1539 11.7667 19.0755 11.7667 16.8479C11.7667 14.8564 12.1774 13.4557 12.9136 12.5589C13.6342 11.681 14.7337 11.2062 16.3083 11.2062C17.846 11.2062 18.9414 11.6847 19.6807 12.5824L19.6855 12.5882L19.6904 12.5938C20.4268 13.4355 20.85 14.875 20.85 17.0312V20.3312V20.8312H21.35H30.8833H31.3833V20.3312V17.6729C31.3833 12.4059 30.1135 8.29661 27.4985 5.42374C24.9328 2.47606 21.141 1.03955 16.2167 1.03955C11.2309 1.03955 7.35252 2.4759 4.66593 5.41707C1.98769 8.28785 0.683333 12.3368 0.683333 17.4896C0.683333 21.2939 1.52608 24.7393 3.22041 27.8142L3.2204 27.8142L3.22255 27.818C4.91205 30.8216 7.8618 34.1648 12.0359 37.8478L12.0384 37.85C15.3252 40.7108 17.538 43.1436 18.719 45.1514L18.719 45.1514L18.7224 45.157C19.8909 47.0851 20.4833 49.3456 20.4833 51.9562C20.4833 54.1677 20.032 55.6704 19.2334 56.5754L19.232 56.577C18.4993 57.4144 17.3737 57.8729 15.7583 57.8729C14.1192 57.8729 12.9729 57.3882 12.2228 56.4934C11.4585 55.5816 11.0333 54.1597 11.0333 52.1395V47.7395V47.2395H10.5333H1H0.5V47.7395V51.4062C0.5 56.6767 1.7714 60.8148 4.38508 63.7472L4.38506 63.7473Z" stroke="white"/>
<path opacity="0.9" d="M426.143 1.53955H454.429V10.9681H436.514V28.411H450.752V37.8395H436.514V58.111H454.429V67.5395H426.143V1.53955Z" fill="#F7F7F7"/>
<path opacity="0.9" d="M375.409 1.53955H390.212L396.812 48.7767H397L403.6 1.53955H418.403V67.5395H408.597V17.5681H408.409L400.866 67.5395H392.192L384.649 17.5681H384.46V67.5395H375.409V1.53955Z" fill="#F7F7F7"/>
<path opacity="0.9" d="M341.157 1.53955H369.443V10.9681H351.529V28.411H365.766V37.8395H351.529V58.111H369.443V67.5395H341.157V1.53955Z" fill="#F7F7F7"/>
<path opacity="0.9" d="M303.13 1.53955H318.499C323.842 1.53955 327.739 2.79669 330.19 5.31098C332.642 7.76241 333.868 11.5653 333.868 16.7195V20.7738C333.868 27.6253 331.605 31.9624 327.079 33.7853V33.9738C329.593 34.7281 331.353 36.2681 332.359 38.5938C333.428 40.9195 333.962 44.031 333.962 47.9281V59.5253C333.962 61.411 334.025 62.951 334.15 64.1453C334.276 65.2767 334.59 66.4081 335.093 67.5395H324.533C324.156 66.471 323.905 65.4652 323.779 64.5224C323.653 63.5795 323.59 61.8824 323.59 59.431V47.3624C323.59 44.3453 323.088 42.2395 322.082 41.0453C321.139 39.851 319.473 39.2538 317.085 39.2538H313.502V67.5395H303.13V1.53955ZM317.273 29.8253C319.348 29.8253 320.888 29.291 321.893 28.2224C322.962 27.1538 323.496 25.3624 323.496 22.8481V17.7567C323.496 15.3681 323.056 13.6395 322.176 12.571C321.359 11.5024 320.039 10.9681 318.216 10.9681H313.502V29.8253H317.273Z" fill="#F7F7F7"/>
<path opacity="0.9" d="M265.552 10.9681V11.4681H266.052H276.395V67.5395V68.0395H276.895H287.266H287.766V67.5395V11.4681H298.109H298.609V10.9681V1.53955V1.03955H298.109H266.052H265.552V1.53955V10.9681Z" stroke="white"/>
</svg>
