<svg width="301" height="68" viewBox="0 0 301 68" fill="none" xmlns="http://www.w3.org/2000/svg">
<path opacity="0.9" d="M276.182 1.91687H289.841L300.291 66.0835H290.207L288.374 53.3419V53.5252H276.916L275.082 66.0835H265.732L276.182 1.91687ZM287.182 44.8169L282.691 13.1002H282.507L278.107 44.8169H287.182Z" fill="#F7F7F7"/>
<path opacity="0.9" d="M233.326 1.91687H243.501L250.101 51.6919H250.285L256.885 1.91687H266.143L256.426 66.0835H243.043L233.326 1.91687Z" fill="#F7F7F7"/>
<path opacity="0.9" d="M218.35 1.91687H228.433V66.0835H218.35V1.91687Z" fill="#F7F7F7"/>
<path opacity="0.9" d="M192.843 11.0835H182.301V1.91687H213.468V11.0835H202.926V66.0835H192.843V11.0835Z" fill="#F7F7F7"/>
<path opacity="0.9" d="M160.167 1.91687H173.825L184.275 66.0835H174.192L172.358 53.3419V53.5252H160.9L159.067 66.0835H149.717L160.167 1.91687ZM171.167 44.8169L166.675 13.1002H166.492L162.092 44.8169H171.167Z" fill="#F7F7F7"/>
<path opacity="0.9" d="M130.499 66.4502C128.665 66.4502 127.107 66.328 125.824 66.0835V56.9169C126.802 57.1613 127.902 57.2835 129.124 57.2835C131.14 57.2835 132.638 56.7947 133.615 55.8169C134.593 54.778 135.082 53.2197 135.082 51.1419V1.91687H145.165V50.8669C145.165 56.1224 143.943 60.0335 141.499 62.6002C139.115 65.1669 135.449 66.4502 130.499 66.4502Z" fill="#F7F7F7"/>
<path opacity="0.9" d="M110.479 1.91687H120.562V66.0835H110.479V1.91687Z" fill="#F7F7F7"/>
<path opacity="0.9" d="M89.5981 67.0001C84.7703 67.0001 81.073 65.6251 78.5064 62.8751C76.0008 60.1251 74.748 56.2446 74.748 51.2335V16.7668C74.748 11.7557 76.0008 7.87512 78.5064 5.12512C81.073 2.37512 84.7703 1.00012 89.5981 1.00012C94.4258 1.00012 98.0925 2.37512 100.598 5.12512C103.165 7.87512 104.448 11.7557 104.448 16.7668V23.5501H94.9147V16.1251C94.9147 12.1529 93.2342 10.1668 89.873 10.1668C86.5119 10.1668 84.8314 12.1529 84.8314 16.1251V51.9668C84.8314 55.8779 86.5119 57.8335 89.873 57.8335C93.2342 57.8335 94.9147 55.8779 94.9147 51.9668V42.1585H104.448V51.2335C104.448 56.2446 103.165 60.1251 100.598 62.8751C98.0925 65.6251 94.4258 67.0001 89.5981 67.0001Z" fill="#F7F7F7"/>
<path opacity="0.9" d="M57.7544 1.91687H67.8377V66.0835H57.7544V1.91687Z" fill="#F7F7F7"/>
<path opacity="0.9" d="M18.6333 1.91687H31.2833L41.0916 40.3252H41.275V1.91687H50.2583V66.0835H39.9L27.8 19.2419H27.6166V66.0835H18.6333V1.91687Z" fill="#F7F7F7"/>
<path opacity="0.9" d="M1 1.41687H0.5V1.91687V66.0835V66.5835H1H11.0833H11.5833V66.0835V1.91687V1.41687H11.0833H1Z" stroke="white"/>
</svg>
