<svg width="590" height="74" viewBox="0 0 590 74" fill="none" xmlns="http://www.w3.org/2000/svg">
<path opacity="0.9" d="M414.321 72.8869C409.427 72.8869 405.695 71.5105 403.126 68.7578C400.557 65.9439 399.272 61.9372 399.272 56.7376V22.9708C399.272 17.7713 400.557 13.7951 403.126 11.0424C405.695 8.22848 409.427 6.82153 414.321 6.82153C419.214 6.82153 422.946 8.22848 425.515 11.0424C428.084 13.7951 429.369 17.7713 429.369 22.9708V28.4763H419.826V22.3285C419.826 18.1077 418.083 15.9973 414.596 15.9973C411.109 15.9973 409.366 18.1077 409.366 22.3285V57.4716C409.366 61.6313 411.109 63.7111 414.596 63.7111C418.083 63.7111 419.826 61.6313 419.826 57.4716V44.9009H414.779V35.7251H429.369V56.7376C429.369 61.9372 428.084 65.9439 425.515 68.7578C422.946 71.5105 419.214 72.8869 414.321 72.8869Z" fill="#F7F7F7"/>
<path opacity="0.9" d="M377.858 72.8869C372.903 72.8869 369.11 71.4799 366.48 68.666C363.849 65.8522 362.534 61.876 362.534 56.7376V22.9708C362.534 17.8324 363.849 13.8563 366.48 11.0424C369.11 8.22848 372.903 6.82153 377.858 6.82153C382.813 6.82153 386.605 8.22848 389.236 11.0424C391.866 13.8563 393.181 17.8324 393.181 22.9708V56.7376C393.181 61.876 391.866 65.8522 389.236 68.666C386.605 71.4799 382.813 72.8869 377.858 72.8869ZM377.858 63.7111C381.344 63.7111 383.088 61.6007 383.088 57.3799V22.3285C383.088 18.1077 381.344 15.9973 377.858 15.9973C374.371 15.9973 372.627 18.1077 372.627 22.3285V57.3799C372.627 61.6007 374.371 63.7111 377.858 63.7111Z" fill="#F7F7F7"/>
<path opacity="0.9" d="M324.11 7.73999H336.772L346.59 46.1864H346.774V7.73999H355.766V71.9702H345.398L333.286 25.0821H333.102V71.9702H324.11V7.73999Z" fill="#F7F7F7"/>
<path opacity="0.9" d="M295.081 7.73999H308.753L319.213 71.9702H309.12L307.285 59.2159V59.3994H295.815L293.98 71.9702H284.621L295.081 7.73999ZM306.092 50.6825L301.596 18.9344H301.412L297.008 50.6825H306.092Z" fill="#F7F7F7"/>
<path opacity="0.9" d="M266.532 72.8869C261.638 72.8869 257.937 71.5105 255.429 68.7578C252.921 65.9439 251.667 61.9372 251.667 56.7376V53.0673H261.21V57.4716C261.21 61.6313 262.953 63.7111 266.44 63.7111C268.153 63.7111 269.437 63.2218 270.294 62.243C271.211 61.2031 271.67 59.5515 271.67 57.2881C271.67 54.5966 271.058 52.2415 269.835 50.2228C268.612 48.143 266.348 45.6655 263.045 42.7904C258.885 39.1202 255.98 35.8169 254.328 32.8806C252.676 29.8832 251.851 26.5188 251.851 22.7873C251.851 17.7101 253.135 13.7951 255.704 11.0424C258.274 8.22848 262.005 6.82153 266.899 6.82153C271.731 6.82153 275.371 8.22848 277.818 11.0424C280.326 13.7951 281.58 17.7713 281.58 22.9708V25.6318H272.037V22.3285C272.037 20.1264 271.609 18.5359 270.753 17.5572C269.896 16.5172 268.642 15.9973 266.991 15.9973C263.626 15.9973 261.944 18.0465 261.944 22.145C261.944 24.4695 262.556 26.6411 263.779 28.6598C265.064 30.6785 267.358 33.1253 270.661 36.0004C274.882 39.6707 277.787 43.0046 279.378 46.002C280.968 48.9994 281.763 52.5167 281.763 56.5541C281.763 61.8148 280.448 65.8522 277.818 68.666C275.249 71.4799 271.487 72.8869 266.532 72.8869Z" fill="#F7F7F7"/>
<path opacity="0.9" d="M235.756 7.73999H245.849V71.9702H235.756V7.73999Z" fill="#F7F7F7"/>
<path opacity="0.9" d="M204.215 7.73999H214.308V62.7945H230.916V71.9702H204.215V7.73999Z" fill="#F7F7F7"/>
<path opacity="0.9" d="M181.978 72.8878C177.085 72.8878 173.353 71.5114 170.784 68.7587C168.215 65.9448 166.93 61.9381 166.93 56.7385V7.73999H177.023V57.4725C177.023 59.6747 177.452 61.2652 178.308 62.2439C179.226 63.2227 180.51 63.712 182.162 63.712C183.814 63.712 185.068 63.2227 185.924 62.2439C186.842 61.2652 187.3 59.6747 187.3 57.4725V7.73999H197.027V56.7385C197.027 61.9381 195.742 65.9448 193.173 68.7587C190.604 71.5114 186.872 72.8878 181.978 72.8878Z" fill="#F7F7F7"/>
<path opacity="0.9" d="M129.394 7.73999H139.487V34.8084L152.333 7.73999H162.426L150.406 31.3217L162.61 71.9702H152.058L143.524 43.3419L139.487 51.5083V71.9702H129.394V7.73999Z" fill="#F7F7F7"/>
<path opacity="0.9" d="M111.741 7.73999H121.835V71.9702H111.741V7.73999Z" fill="#F7F7F7"/>
<path opacity="0.9" d="M86.2088 16.9157H75.6567V7.73999H106.854V16.9157H96.3022V71.9702H86.2088V16.9157Z" fill="#F7F7F7"/>
<path opacity="0.9" d="M41.4893 7.73999H56.4457C61.6453 7.73999 65.438 8.96342 67.8237 11.4103C70.2093 13.796 71.4022 17.4969 71.4022 22.5129V26.4585C71.4022 33.1262 69.2 37.3471 64.7957 39.121V39.3046C67.2425 40.0386 68.9553 41.5373 69.9341 43.8007C70.974 46.064 71.4939 49.092 71.4939 52.8847V64.1708C71.4939 66.006 71.5551 67.5047 71.6775 68.667C71.7998 69.768 72.1057 70.8691 72.595 71.9702H62.3182C61.9512 70.9303 61.7065 69.9516 61.5841 69.034C61.4618 68.1164 61.4006 66.4648 61.4006 64.0791V52.3341C61.4006 49.3979 60.9113 47.3486 59.9325 46.1864C59.0149 45.0241 57.3939 44.443 55.0694 44.443H51.5826V71.9702H41.4893V7.73999ZM55.2529 35.2672C57.2715 35.2672 58.7702 34.7473 59.749 33.7074C60.7889 32.6674 61.3089 30.924 61.3089 28.4772V23.5223C61.3089 21.1978 60.8807 19.5155 60.0243 18.4756C59.229 17.4357 57.9444 16.9157 56.1705 16.9157H51.5826V35.2672H55.2529Z" fill="#F7F7F7"/>
<path opacity="0.9" d="M12.4603 7.23999H12.0352L11.9668 7.65962L1.5065 71.8898L1.41198 72.4702H2H11.3593H11.7916L11.854 72.0424L13.6267 59.8994H24.2573L26.0043 72.0414L26.066 72.4702H26.4992H36.5926H37.1806L37.0861 71.8898L26.6257 7.65962L26.5574 7.23999H26.1322H12.4603ZM14.9614 50.1825L18.8875 21.8817L22.8954 50.1825H14.9614Z" stroke="white"/>
<path opacity="0.9" d="M576.097 72.8878C571.7 72.8878 568.347 71.6512 566.039 69.178C563.731 66.6498 562.577 63.0499 562.577 58.3783V28.0403C562.577 23.3686 563.731 19.7962 566.039 17.323C568.347 14.7948 571.7 13.5308 576.097 13.5308C580.494 13.5308 583.846 14.7948 586.155 17.323C588.463 19.7962 589.617 23.3686 589.617 28.0403V32.9867H581.043V27.4632C581.043 23.6709 579.477 21.7748 576.344 21.7748C573.211 21.7748 571.645 23.6709 571.645 27.4632V59.0378C571.645 62.7751 573.211 64.6438 576.344 64.6438C579.477 64.6438 581.043 62.7751 581.043 59.0378V47.7435H576.509V39.4995H589.617V58.3783C589.617 63.0499 588.463 66.6498 586.155 69.178C583.846 71.6512 580.494 72.8878 576.097 72.8878Z" fill="#F7F7F7"/>
<path opacity="0.9" d="M543.336 72.8878C538.885 72.8878 535.477 71.6237 533.114 69.0955C530.75 66.5674 529.569 62.995 529.569 58.3783V28.0403C529.569 23.4236 530.75 19.8512 533.114 17.323C535.477 14.7948 538.885 13.5308 543.336 13.5308C547.788 13.5308 551.196 14.7948 553.559 17.323C555.922 19.8512 557.104 23.4236 557.104 28.0403V58.3783C557.104 62.995 555.922 66.5674 553.559 69.0955C551.196 71.6237 547.788 72.8878 543.336 72.8878ZM543.336 64.6438C546.469 64.6438 548.035 62.7476 548.035 58.9554V27.4632C548.035 23.6709 546.469 21.7748 543.336 21.7748C540.204 21.7748 538.637 23.6709 538.637 27.4632V58.9554C538.637 62.7476 540.204 64.6438 543.336 64.6438Z" fill="#F7F7F7"/>
<path opacity="0.9" d="M496.52 14.3553H505.67L511.606 59.1204H511.771L517.707 14.3553H526.033L517.294 72.0636H505.258L496.52 14.3553Z" fill="#F7F7F7"/>
<path opacity="0.9" d="M483.051 14.3553H492.119V72.0636H483.051V14.3553Z" fill="#F7F7F7"/>
<path opacity="0.9" d="M450.906 63.7962L450.869 63.8867V63.9844V72.0636V72.5636H451.369H477.915H478.415V72.0636V63.8195V63.3195H477.915H461.84L478.378 22.6227L478.415 22.5322V22.4345V14.3553V13.8553H477.915H452.194H451.694V14.3553V22.5994V23.0994H452.194H467.444L450.906 63.7962ZM454.007 0.5H453.037L453.6 1.29028L460.36 10.7709L460.51 10.9806H460.767H469.341H469.599L469.748 10.7709L476.508 1.29028L477.072 0.5H476.101H469.259H469.04L468.892 0.66003L465.054 4.79886L461.216 0.66003L461.068 0.5H460.85H454.007Z" stroke="white"/>
</svg>
