<svg width="408" height="68" viewBox="0 0 408 68" fill="none" xmlns="http://www.w3.org/2000/svg">
<path opacity="0.9" d="M44.8795 1.00012H58.8107L69.4695 67H59.1847L57.3148 53.8943V54.0829H45.6275L43.7575 67H34.2207L44.8795 1.00012ZM56.0993 45.1258L51.5179 12.503H51.3309L46.843 45.1258H56.0993Z" fill="#219DD9"/>
<path opacity="0.9" d="M0.53624 57.573L0.5 57.663V57.7599V66.9999V67.4999H1H31.1064H31.6064V66.9999V57.5714V57.0714H31.1064H12.7734L31.5702 10.4269L31.6064 10.3369V10.24V1V0.5H31.1064H1.93498H1.43498V1V10.4286V10.9286H1.93498H19.3331L0.53624 57.573Z" stroke="#219DD9"/>
<path opacity="0.9" d="M379.904 1H407.794V10.375H390.131V27.7188H404.169V37.0938H390.131V57.25H407.794V66.625H379.904V1Z" fill="#219DD9"/>
<path opacity="0.9" d="M357.716 67C355.857 67 354.276 66.875 352.975 66.625V57.25C353.966 57.5 355.082 57.625 356.321 57.625C358.367 57.625 359.885 57.125 360.877 56.125C361.868 55.0625 362.364 53.4688 362.364 51.3438V1H372.591V51.0625C372.591 56.4375 371.351 60.4375 368.872 63.0625C366.455 65.6875 362.736 67 357.716 67Z" fill="#219DD9"/>
<path opacity="0.9" d="M315.624 1H328.453L338.4 40.2813H338.586V1H347.697V66.625H337.192L324.92 18.7188H324.734V66.625H315.624V1Z" fill="#219DD9"/>
<path opacity="0.9" d="M286.212 1H300.064L310.662 66.625H300.436L298.576 53.5938V53.7812H286.955L285.096 66.625H275.613L286.212 1ZM297.368 44.875L292.812 12.4375H292.626L288.164 44.875H297.368Z" fill="#219DD9"/>
<path opacity="0.9" d="M256.126 67C254.266 67 252.686 66.875 251.384 66.625V57.25C252.376 57.5 253.492 57.625 254.731 57.625C256.776 57.625 258.295 57.125 259.286 56.125C260.278 55.0625 260.774 53.4688 260.774 51.3438V1H271V51.0625C271 56.4375 269.761 60.4375 267.282 63.0625C264.865 65.6875 261.146 67 256.126 67Z" fill="#219DD9"/>
<path opacity="0.9" d="M235.823 1H246.05V66.625H235.823V1Z" fill="#219DD9"/>
<path opacity="0.9" d="M197.628 1H207.947L214.641 51.9062H214.827L221.52 1H230.91L221.056 66.625H207.482L197.628 1Z" fill="#219DD9"/>
<path opacity="0.9" d="M164.596 57.4375L183.561 10.375H165.525V1H194.531V10.1875L175.566 57.25H194.531V66.625H164.596V57.4375Z" fill="#219DD9"/>
<path opacity="0.9" d="M136.868 1H150.72L161.318 66.625H151.092L149.232 53.5938V53.7812H137.612L135.752 66.625H126.27L136.868 1ZM148.024 44.875L143.468 12.4375H143.283L138.82 44.875H148.024Z" fill="#219DD9"/>
<path opacity="0.9" d="M91.4697 0.5H90.9697V1V66.625V67.125H91.4697H101.696H102.196V66.625V39H105.229C107.518 39 108.971 39.5783 109.762 40.5895L109.767 40.5957L109.772 40.6017C110.645 41.6466 111.144 43.585 111.144 46.5625V58.5625C111.144 60.9983 111.205 62.7163 111.334 63.6905C111.463 64.6677 111.72 65.7013 112.101 66.7902L112.219 67.125H112.573H122.986H123.752L123.443 66.4233C122.966 65.3415 122.671 64.2663 122.553 63.1966C122.432 62.0333 122.37 60.5217 122.37 58.6563V47.125C122.37 43.2152 121.84 40.0436 120.747 37.6415C119.827 35.4999 118.295 33.9852 116.178 33.1097C120.292 30.9904 122.277 26.5831 122.277 20.125V16.0938C122.277 10.9027 121.054 6.96889 118.509 4.40025C115.958 1.76388 111.956 0.5 106.623 0.5H91.4697ZM109.615 27.1792L109.61 27.1846L109.605 27.1901C108.741 28.1156 107.379 28.625 105.415 28.625H102.196V10.875H106.344C108.044 10.875 109.17 11.3733 109.851 12.2709L109.856 12.278L109.862 12.285C110.62 13.2131 111.051 14.789 111.051 17.125V22.1875C111.051 24.6391 110.53 26.2564 109.615 27.1792Z" stroke="#219DD9"/>
</svg>
