<svg width="183" height="46" viewBox="0 0 183 46" fill="none" xmlns="http://www.w3.org/2000/svg">
<path d="M62.084 0.305664L66.195 26.5191H67.038L72.1893 11.0329L67.0413 0.305664H62.084Z" fill="#219DD9"/>
<path d="M94.0925 0.305664L89.9514 26.5191H89.1151L83.937 11.0329L89.1118 0.305664H94.0925Z" fill="#219DD9"/>
<path d="M13.0121 26.519H8.84424V0.298828H12.4602V16.8924L13.9354 11.1246L17.2536 0.298828H21.7159V26.519H18.0631V8.05381L16.404 14.4976L13.0088 26.5224L13.0121 26.519Z" fill="white"/>
<path d="M32.4135 6.74275C32.4135 5.57084 32.2229 4.77598 31.8415 4.36496C31.4602 3.95394 30.9484 3.74673 30.3095 3.74673C29.6706 3.74673 29.1521 3.94035 28.7608 4.32759C28.366 4.71483 28.172 5.38401 28.172 6.33173V8.46834H24.4457V6.52195C24.4457 4.39893 24.9441 2.78203 25.9409 1.67127C26.9377 0.5605 28.4296 0.00341797 30.4232 0.00341797C32.4169 0.00341797 33.9221 0.57069 34.9424 1.70863C35.9626 2.84657 36.4744 4.47366 36.4744 6.59668V7.27265C36.4744 10.0683 35.5278 11.8686 33.6345 12.6668C34.6681 13.1152 35.3973 13.8082 35.8288 14.7457C36.2603 15.6832 36.4744 16.8246 36.4744 18.1731V20.235C36.4744 22.358 35.9626 23.9885 34.9424 25.123C33.9221 26.261 32.4169 26.8283 30.4232 26.8283C28.4296 26.8283 26.9243 26.261 25.9041 25.123C24.8839 23.9885 24.3721 22.358 24.3721 20.235V17.3511H28.2088V20.4966C28.2088 21.4443 28.3995 22.1134 28.7808 22.5007C29.1622 22.8879 29.6706 23.0815 30.3128 23.0815C30.9551 23.0815 31.4635 22.8811 31.8449 22.4837C32.2262 22.0829 32.4169 21.2982 32.4169 20.1229V18.0644C32.4169 16.8416 32.2061 15.9788 31.7914 15.4794C31.3732 14.9801 30.6975 14.7287 29.7609 14.7287H28.7641V10.982H29.9817C30.7444 10.982 31.3398 10.7816 31.7713 10.3842C32.2028 9.98673 32.4169 9.25981 32.4169 8.21018V6.74954L32.4135 6.74275Z" fill="white"/>
<path d="M45.1778 0.298828C47.2183 0.298828 48.737 0.849116 49.7338 1.9463C50.7306 3.04687 51.229 4.65697 51.229 6.78V10.187C51.229 12.3101 50.7306 13.9202 49.7338 15.0207C48.737 16.1213 47.2183 16.6682 45.1778 16.6682H43.2611V26.519H39.2036V0.298828H45.1778ZM43.2611 4.04554V12.9249H45.1778C45.8167 12.9249 46.3085 12.7516 46.653 12.4018C46.9975 12.0519 47.1681 11.4031 47.1681 10.4554V6.52184C47.1681 5.57412 46.9942 4.92532 46.653 4.57545C46.3085 4.22557 45.8167 4.05234 45.1778 4.05234H43.2611V4.04554Z" fill="white"/>
<path d="M66.2386 26.519H62.1443L61.4418 21.7635H56.461L55.7586 26.519H52.0322L56.17 0.298828H62.1075L66.2386 26.519ZM56.9795 18.2036H60.8899L58.9364 4.94231L56.9829 18.2036H56.9795Z" fill="white"/>
<path d="M104.124 26.519H100.03L99.331 21.7635H94.3502L93.6477 26.519H89.9214L94.0525 0.298828H99.9899L104.121 26.519H104.124ZM94.8653 18.2036H98.7757L96.8222 4.94231L94.8687 18.2036H94.8653Z" fill="white"/>
<path d="M119.284 26.519H115.227V0.298828H119.284V11.5356H123.894V0.298828H128.025V26.519H123.894V15.2823H119.284V26.519Z" fill="white"/>
<path d="M130.644 6.59327C130.644 4.47024 131.172 2.84315 132.229 1.70521C133.286 0.570669 134.811 0 136.802 0C138.792 0 140.317 0.567272 141.374 1.70521C142.431 2.84315 142.96 4.47024 142.96 6.59327V20.2282C142.96 22.3512 142.431 23.9817 141.374 25.1162C140.317 26.2542 138.792 26.8214 136.802 26.8214C134.811 26.8214 133.286 26.2542 132.229 25.1162C131.172 23.9817 130.644 22.3512 130.644 20.2282V6.59327ZM134.701 20.4897C134.701 21.4375 134.892 22.1066 135.273 22.4939C135.654 22.8811 136.163 23.0747 136.805 23.0747C137.447 23.0747 137.956 22.8811 138.337 22.4939C138.718 22.1066 138.909 21.4409 138.909 20.4897V6.33171C138.909 5.38399 138.718 4.71481 138.337 4.32757C137.956 3.94033 137.444 3.74671 136.805 3.74671C136.166 3.74671 135.654 3.94033 135.273 4.32757C134.892 4.71481 134.701 5.38399 134.701 6.33171V20.4897Z" fill="white"/>
<path d="M157.35 16.743V20.2282C157.35 22.3512 156.839 23.9817 155.818 25.1162C154.798 26.2542 153.293 26.8214 151.299 26.8214C149.306 26.8214 147.8 26.2542 146.78 25.1162C145.76 23.9817 145.248 22.3512 145.248 20.2282V6.59327C145.248 4.47024 145.756 2.84315 146.78 1.70521C147.8 0.570669 149.306 0 151.299 0C153.293 0 154.798 0.567272 155.818 1.70521C156.839 2.84315 157.35 4.47024 157.35 6.59327V9.14089H153.514V6.33171C153.514 5.38399 153.323 4.71481 152.942 4.32757C152.56 3.94033 152.049 3.74671 151.41 3.74671C150.771 3.74671 150.259 3.94033 149.878 4.32757C149.496 4.71481 149.306 5.38399 149.306 6.33171V20.4897C149.306 21.4375 149.496 22.0998 149.878 22.4735C150.259 22.8471 150.767 23.034 151.41 23.034C152.052 23.034 152.56 22.8471 152.942 22.4735C153.323 22.0998 153.514 21.4375 153.514 20.4897V16.743H157.35Z" fill="white"/>
<path d="M158.642 0.298828H171.182V4.04554H166.941V26.519H162.883V4.04554H158.642V0.298828Z" fill="white"/>
<path d="M105.104 22.7757C105.546 22.8131 106.065 22.8131 106.506 22.8131C107.797 22.8131 108.831 22.3273 108.831 20.3028V0.298828H112.888V20.0005C112.888 25.2452 110.122 26.5938 107.061 26.5938C106.322 26.5938 105.77 26.5938 105.108 26.519V22.7723L105.104 22.7757Z" fill="white"/>
<path d="M71.2056 0.305664H76.0124V10.9004L71.2056 0.305664Z" fill="#219DD9"/>
<path d="M84.8669 0.254883H80.0601V10.8496L84.8669 0.254883Z" fill="#219DD9"/>
<path d="M71.3428 26.5193L75.029 14.8647L76.0292 16.9096V26.5193H71.3428Z" fill="#219DD9"/>
<path d="M84.723 26.5193L81.0334 14.8647L80.0366 16.9096V26.5193H84.723Z" fill="#219DD9"/>
<path d="M40.4716 39.4374C40.8061 39.4374 41.1172 39.4612 41.4116 39.5122L43.5156 36.9951H44.4656L42.1876 39.6922C42.8801 39.913 43.4186 40.2867 43.8033 40.8166C44.188 41.3465 44.4924 42.0564 44.7165 42.9464H43.7665C43.6494 42.4199 43.5022 41.9817 43.3216 41.6318C43.141 41.2819 42.9169 40.9966 42.6459 40.7792C42.375 40.5618 42.0605 40.4089 41.6993 40.3206C41.3413 40.2323 40.9299 40.1814 40.4716 40.1746V42.9464H39.6187V36.9951H40.4716V39.4374Z" fill="#219DD9"/>
<path d="M48.4861 42.019H48.5095L50.3259 36.9951H51.2525L48.3356 44.4851C48.1616 44.9437 47.9375 45.3106 47.6666 45.5857C47.3956 45.8609 47.0043 46.0001 46.4958 46.0001C46.2382 46.0001 45.984 45.9764 45.7331 45.9254L45.8201 45.1373C46.0208 45.2053 46.2282 45.2392 46.4456 45.2392C46.7367 45.2392 46.9675 45.1475 47.1347 44.9641C47.302 44.7807 47.4492 44.5225 47.5729 44.1828L48.0479 42.9362L45.5425 36.9985H46.4925L48.4828 42.0224L48.4861 42.019Z" fill="#219DD9"/>
<path d="M56.5611 42.9498L54.621 38.0414L52.5939 42.9498H51.7041L54.2697 36.9985H55.0224L57.4274 42.9498H56.5644H56.5611Z" fill="#219DD9"/>
<path d="M57.7988 36.9985H62.9434V37.7221H60.7257V42.9464H59.8727V37.7221H57.7954V36.9985H57.7988Z" fill="#219DD9"/>
<path d="M66.2151 42.019H66.2385L68.0549 36.9951H68.9815L66.0646 44.4851C65.8906 44.9437 65.6665 45.3106 65.3956 45.5857C65.1246 45.8609 64.7333 46.0001 64.2248 46.0001C63.9673 46.0001 63.713 45.9764 63.4622 45.9254L63.5491 45.1373C63.7498 45.2053 63.9572 45.2392 64.1746 45.2392C64.4657 45.2392 64.6965 45.1475 64.8637 44.9641C65.031 44.7807 65.1782 44.5225 65.3019 44.1828L65.7769 42.9362L63.2715 36.9985H64.2215L66.2118 42.0224L66.2151 42.019Z" fill="#219DD9"/>
<path d="M71.1587 46.0002H70.3091V36.9986H71.1587V38.0278H71.1955C71.4364 37.6372 71.7608 37.345 72.1656 37.1446C72.5703 36.9442 72.9818 36.8457 73.3999 36.8457C73.8582 36.8457 74.2729 36.9272 74.6442 37.0869C75.0155 37.2465 75.3333 37.4673 75.5942 37.7493C75.8551 38.0312 76.0625 38.3607 76.2064 38.7411C76.3536 39.1216 76.4271 39.5326 76.4271 39.9742C76.4271 40.4158 76.3536 40.8268 76.2064 41.2072C76.0592 41.5877 75.8551 41.9206 75.5942 42.1991C75.33 42.4777 75.0155 42.6985 74.6442 42.8615C74.2729 43.0212 73.8582 43.1027 73.3999 43.1027C72.9818 43.1027 72.5703 43.0042 72.1656 42.8038C71.7608 42.6033 71.4364 42.318 71.1955 41.9444H71.1587V46.0002ZM75.5273 39.9742C75.5273 39.6447 75.4772 39.3322 75.3768 39.0401C75.2765 38.7479 75.1326 38.4932 74.9453 38.2758C74.758 38.0584 74.5272 37.8885 74.2495 37.7595C73.9752 37.6338 73.6608 37.5692 73.3096 37.5692C72.9851 37.5692 72.6841 37.6304 72.4098 37.7527C72.1355 37.8749 71.8946 38.0448 71.6973 38.2622C71.4966 38.4796 71.3394 38.7309 71.229 39.0265C71.1186 39.322 71.0584 39.6345 71.0584 39.9742C71.0584 40.3139 71.1152 40.6298 71.229 40.9219C71.3427 41.214 71.4966 41.4654 71.6973 41.6794C71.898 41.89 72.1355 42.0599 72.4098 42.1821C72.6841 42.3044 72.9851 42.3656 73.3096 42.3656C73.6608 42.3656 73.9719 42.3044 74.2495 42.1821C74.5238 42.0599 74.758 41.89 74.9453 41.6726C75.1326 41.4552 75.2765 41.2038 75.3768 40.9083C75.4772 40.6162 75.5273 40.3037 75.5273 39.9742Z" fill="#219DD9"/>
<path d="M81.9532 39.0978C81.9532 38.5849 81.8194 38.201 81.5518 37.9497C81.2842 37.6983 80.8962 37.5692 80.3878 37.5692C80.0365 37.5692 79.7121 37.6338 79.411 37.7595C79.11 37.8851 78.8557 38.055 78.6483 38.269L78.1733 37.6983C78.4142 37.4537 78.7353 37.2499 79.13 37.0869C79.5281 36.9272 79.9763 36.8457 80.4747 36.8457C80.7925 36.8457 81.0869 36.8899 81.3645 36.9782C81.6388 37.0665 81.883 37.2024 82.0904 37.379C82.2978 37.5556 82.4617 37.7832 82.5788 38.0516C82.6958 38.3233 82.7527 38.6392 82.7527 39.0061V41.6115C82.7527 41.8391 82.7594 42.0768 82.7761 42.3248C82.7928 42.5694 82.8162 42.7766 82.8497 42.9464H82.087C82.0636 42.8038 82.0402 42.6441 82.0235 42.4777C82.0068 42.3078 81.9967 42.1414 81.9967 41.9817H81.9733C81.7057 42.3792 81.4046 42.6679 81.0668 42.8411C80.729 43.0144 80.3209 43.1027 79.8459 43.1027C79.6217 43.1027 79.3876 43.0721 79.1501 43.0076C78.9126 42.943 78.6952 42.8411 78.4978 42.6951C78.3005 42.549 78.1399 42.3622 78.0094 42.1346C77.879 41.9036 77.8154 41.6251 77.8154 41.2922C77.8154 40.8336 77.9292 40.4701 78.16 40.2018C78.3908 39.9334 78.6952 39.733 79.0799 39.6005C79.4645 39.4681 79.9027 39.3831 80.4011 39.3458C80.8962 39.3084 81.4147 39.288 81.9465 39.288V39.0978H81.9532ZM81.7024 39.9742C81.3511 39.9742 80.9999 39.9878 80.6453 40.0183C80.2908 40.0489 79.9696 40.1067 79.682 40.195C79.3943 40.2833 79.1568 40.4124 78.9728 40.5822C78.7888 40.7521 78.6985 40.9763 78.6985 41.2548C78.6985 41.4654 78.7387 41.6454 78.8189 41.7881C78.8992 41.9308 79.0063 42.0497 79.1367 42.138C79.2705 42.2263 79.4177 42.2908 79.5816 42.3282C79.7455 42.3656 79.9094 42.3859 80.0767 42.3859C80.3777 42.3859 80.6453 42.3316 80.8795 42.2263C81.1136 42.121 81.3076 41.9749 81.4682 41.7949C81.6254 41.6115 81.7492 41.4043 81.8328 41.1665C81.9164 40.9287 81.9566 40.6807 81.9566 40.4158V39.9708H81.7057L81.7024 39.9742Z" fill="#219DD9"/>
<path d="M86.7365 45.185C86.8201 45.2121 86.9104 45.2291 87.0041 45.2427C87.1011 45.2563 87.1914 45.2631 87.2717 45.2631C87.4456 45.2631 87.5895 45.2325 87.6965 45.168C87.8036 45.1034 87.8872 45.0185 87.9474 44.9064C88.0043 44.7977 88.0444 44.6618 88.0678 44.5056C88.0879 44.3493 88.0979 44.1761 88.0979 43.9893V36.9952H88.9509V44.1285C88.9509 44.3663 88.9241 44.5973 88.8773 44.8215C88.8271 45.0457 88.7402 45.2461 88.613 45.4193C88.4893 45.5926 88.3187 45.7319 88.1046 45.8406C87.8905 45.9459 87.6196 46.0002 87.2851 46.0002C87.1948 46.0002 87.0844 45.9934 86.9606 45.9798C86.8368 45.9662 86.7198 45.9425 86.6094 45.9085L86.7331 45.185H86.7365ZM89.1282 34.7091C89.1282 34.8857 89.0646 35.0318 88.9409 35.1473C88.8171 35.2628 88.6766 35.3205 88.5261 35.3205C88.3755 35.3205 88.2384 35.2628 88.1113 35.1473C87.9875 35.0318 87.924 34.8857 87.924 34.7091C87.924 34.5325 87.9875 34.383 88.1113 34.2709C88.2351 34.1554 88.3755 34.1011 88.5261 34.1011C88.6766 34.1011 88.8138 34.1588 88.9409 34.2709C89.0646 34.3864 89.1282 34.5325 89.1282 34.7091Z" fill="#219DD9"/>
<path d="M94.9118 39.0978C94.9118 38.5849 94.778 38.201 94.5104 37.9497C94.2428 37.6983 93.8548 37.5692 93.3463 37.5692C92.9951 37.5692 92.6706 37.6338 92.3696 37.7595C92.0685 37.8851 91.8143 38.055 91.6069 38.269L91.1319 37.6983C91.3728 37.4537 91.6939 37.2499 92.0886 37.0869C92.4866 36.9272 92.9349 36.8457 93.4333 36.8457C93.7511 36.8457 94.0454 36.8899 94.3231 36.9782C94.5974 37.0665 94.8416 37.2024 95.0489 37.379C95.2563 37.5556 95.4202 37.7832 95.5373 38.0516C95.6544 38.3233 95.7113 38.6392 95.7113 39.0061V41.6115C95.7113 41.8391 95.7213 42.0768 95.738 42.3248C95.7547 42.5728 95.7782 42.7766 95.8116 42.9464H95.0489C95.0222 42.8038 95.0021 42.6441 94.9854 42.4777C94.9687 42.3112 94.962 42.1414 94.962 41.9817H94.9352C94.6676 42.3792 94.3666 42.6679 94.0287 42.8411C93.6909 43.0144 93.2828 43.1027 92.8078 43.1027C92.5837 43.1027 92.3495 43.0721 92.112 43.0076C91.8745 42.943 91.6571 42.8411 91.4597 42.6951C91.2624 42.549 91.1018 42.3622 90.9714 42.1346C90.8409 41.9036 90.7773 41.6251 90.7773 41.2922C90.7773 40.8336 90.8911 40.4701 91.1219 40.2018C91.3527 39.9334 91.6571 39.733 92.0418 39.6005C92.4264 39.4681 92.8646 39.3831 93.363 39.3458C93.8581 39.3084 94.3766 39.288 94.9085 39.288V39.0978H94.9118ZM94.6609 39.9742C94.3097 39.9742 93.9585 39.9878 93.6039 40.0183C93.2493 40.0489 92.9282 40.1067 92.6405 40.195C92.3529 40.2833 92.1154 40.4124 91.9314 40.5822C91.7474 40.7521 91.6571 40.9763 91.6571 41.2548C91.6571 41.4654 91.6972 41.6454 91.7775 41.7881C91.8578 41.9308 91.9648 42.0497 92.0953 42.138C92.2291 42.2263 92.3763 42.2908 92.5402 42.3282C92.7041 42.3656 92.868 42.3859 93.0352 42.3859C93.3363 42.3859 93.6039 42.3316 93.838 42.2263C94.0722 42.121 94.2696 41.9749 94.4268 41.7949C94.584 41.6115 94.7078 41.4043 94.7914 41.1665C94.875 40.9287 94.9151 40.6807 94.9151 40.4158V39.9708H94.6643L94.6609 39.9742Z" fill="#219DD9"/>
<path d="M100.535 42.9498H97.8555V36.9985H100.384C101.127 36.9985 101.679 37.1446 102.037 37.4367C102.395 37.7289 102.575 38.1161 102.575 38.5984C102.575 38.8192 102.542 39.0027 102.475 39.1521C102.408 39.3016 102.314 39.4239 102.194 39.5224C102.074 39.6209 101.933 39.699 101.776 39.7568C101.619 39.8145 101.451 39.8723 101.274 39.9232C101.492 39.9402 101.696 39.9776 101.886 40.0387C102.077 40.0965 102.247 40.1848 102.395 40.3003C102.542 40.4158 102.656 40.5584 102.739 40.7317C102.823 40.9049 102.866 41.1155 102.866 41.3601C102.866 41.8424 102.669 42.2297 102.278 42.5184C101.886 42.8071 101.304 42.9498 100.538 42.9498H100.535ZM100.334 39.6311C100.752 39.6311 101.08 39.5665 101.318 39.4341C101.555 39.3016 101.675 39.04 101.675 38.646C101.675 38.4252 101.629 38.2486 101.538 38.1229C101.445 37.9938 101.318 37.8987 101.15 37.8342C100.983 37.7696 100.782 37.7289 100.548 37.7119C100.314 37.6949 100.056 37.6847 99.7722 37.6847H98.7084V39.6311H100.337H100.334ZM98.7051 42.2636H99.7956C100.103 42.2636 100.388 42.2568 100.645 42.2433C100.903 42.2297 101.13 42.1923 101.321 42.1278C101.512 42.0632 101.662 41.9647 101.772 41.8288C101.88 41.693 101.936 41.4993 101.936 41.2514C101.936 40.8404 101.789 40.572 101.492 40.4463C101.194 40.3172 100.796 40.2561 100.297 40.2561H98.7084V42.2636H98.7051Z" fill="#219DD9"/>
<path d="M105.482 42.9498H104.629V36.9985H105.482V39.4035H108.824V36.9985H109.677V42.9498H108.824V40.127H105.482V42.9498Z" fill="#219DD9"/>
<path d="M117.702 39.9742C117.702 40.4226 117.625 40.837 117.471 41.2208C117.317 41.6047 117.103 41.9342 116.825 42.2127C116.551 42.4912 116.22 42.712 115.835 42.8683C115.45 43.0246 115.029 43.1027 114.571 43.1027C114.112 43.1027 113.701 43.0246 113.32 42.8683C112.935 42.712 112.607 42.4946 112.33 42.2127C112.055 41.9342 111.838 41.6013 111.684 41.2208C111.53 40.8404 111.453 40.4226 111.453 39.9742C111.453 39.5258 111.53 39.108 111.684 38.7276C111.838 38.3471 112.052 38.0142 112.33 37.7357C112.607 37.4571 112.935 37.2397 113.32 37.0801C113.704 36.9238 114.122 36.8457 114.571 36.8457C115.019 36.8457 115.45 36.9238 115.835 37.0801C116.22 37.2363 116.548 37.4537 116.825 37.7357C117.103 38.0176 117.317 38.3471 117.471 38.7276C117.625 39.108 117.702 39.5258 117.702 39.9742ZM116.802 39.9742C116.802 39.6447 116.748 39.3322 116.645 39.0401C116.541 38.7479 116.39 38.4932 116.2 38.2758C116.009 38.0584 115.775 37.8885 115.497 37.7595C115.223 37.6338 114.912 37.5692 114.571 37.5692C114.23 37.5692 113.922 37.6338 113.651 37.7595C113.38 37.8851 113.149 38.0584 112.955 38.2758C112.764 38.4932 112.614 38.7445 112.51 39.0401C112.406 39.3322 112.353 39.6447 112.353 39.9742C112.353 40.3037 112.406 40.6162 112.51 40.9083C112.614 41.2005 112.761 41.4552 112.955 41.6726C113.146 41.89 113.38 42.0599 113.651 42.1821C113.922 42.3044 114.23 42.3656 114.571 42.3656C114.912 42.3656 115.223 42.3044 115.497 42.1821C115.772 42.0599 116.006 41.89 116.2 41.6726C116.39 41.4552 116.541 41.2038 116.645 40.9083C116.748 40.6162 116.802 40.3037 116.802 39.9742Z" fill="#219DD9"/>
<path d="M120.331 42.9498H119.478V36.9985H123.111V37.7221H120.331V42.9464V42.9498Z" fill="#219DD9"/>
<path d="M128.319 42.9498H127.466V36.9985H131.099V37.7221H128.319V42.9464V42.9498Z" fill="#219DD9"/>
<path d="M138.197 39.9742C138.197 40.4226 138.12 40.837 137.966 41.2208C137.812 41.6047 137.598 41.9342 137.32 42.2127C137.046 42.4912 136.715 42.712 136.33 42.8683C135.946 43.0246 135.524 43.1027 135.066 43.1027C134.608 43.1027 134.196 43.0246 133.815 42.8683C133.43 42.712 133.102 42.4946 132.825 42.2127C132.55 41.9342 132.333 41.6013 132.179 41.2208C132.025 40.8404 131.948 40.4226 131.948 39.9742C131.948 39.5258 132.025 39.108 132.179 38.7276C132.333 38.3471 132.547 38.0142 132.825 37.7357C133.102 37.4571 133.43 37.2397 133.815 37.0801C134.199 36.9238 134.618 36.8457 135.066 36.8457C135.514 36.8457 135.946 36.9238 136.33 37.0801C136.715 37.2363 137.043 37.4537 137.32 37.7357C137.598 38.0176 137.812 38.3471 137.966 38.7276C138.12 39.108 138.197 39.5258 138.197 39.9742ZM137.297 39.9742C137.297 39.6447 137.243 39.3322 137.14 39.0401C137.036 38.7479 136.886 38.4932 136.695 38.2758C136.504 38.0584 136.27 37.8885 135.992 37.7595C135.718 37.6338 135.407 37.5692 135.066 37.5692C134.725 37.5692 134.417 37.6338 134.146 37.7595C133.875 37.8851 133.644 38.0584 133.45 38.2758C133.26 38.4932 133.109 38.7445 133.005 39.0401C132.902 39.3322 132.848 39.6447 132.848 39.9742C132.848 40.3037 132.902 40.6162 133.005 40.9083C133.109 41.2005 133.256 41.4552 133.45 41.6726C133.641 41.89 133.875 42.0599 134.146 42.1821C134.417 42.3044 134.725 42.3656 135.066 42.3656C135.407 42.3656 135.718 42.3044 135.992 42.1821C136.267 42.0599 136.501 41.89 136.695 41.6726C136.886 41.4552 137.036 41.2038 137.14 40.9083C137.243 40.6162 137.297 40.3037 137.297 39.9742Z" fill="#219DD9"/>
<path d="M142.655 42.9498H139.976V36.9985H142.505C143.248 36.9985 143.799 37.1446 144.157 37.4367C144.515 37.7289 144.696 38.1161 144.696 38.5984C144.696 38.8192 144.662 39.0027 144.596 39.1521C144.529 39.3016 144.435 39.4239 144.315 39.5224C144.194 39.6209 144.054 39.699 143.896 39.7568C143.739 39.8145 143.572 39.8723 143.395 39.9232C143.612 39.9402 143.816 39.9776 144.007 40.0387C144.198 40.0965 144.368 40.1848 144.515 40.3003C144.662 40.4158 144.776 40.5584 144.86 40.7317C144.943 40.9049 144.987 41.1155 144.987 41.3601C144.987 41.8424 144.79 42.2297 144.398 42.5184C144.007 42.8071 143.425 42.9498 142.659 42.9498H142.655ZM142.455 39.6311C142.873 39.6311 143.201 39.5665 143.438 39.4341C143.676 39.3016 143.796 39.04 143.796 38.646C143.796 38.4252 143.749 38.2486 143.659 38.1229C143.565 37.9938 143.438 37.8987 143.271 37.8342C143.104 37.7696 142.903 37.7289 142.669 37.7119C142.435 37.6949 142.177 37.6847 141.893 37.6847H140.829V39.6311H142.458H142.455ZM140.826 42.2636H141.916C142.224 42.2636 142.508 42.2568 142.766 42.2433C143.023 42.2297 143.251 42.1923 143.442 42.1278C143.632 42.0632 143.783 41.9647 143.893 41.8288C144 41.693 144.057 41.4993 144.057 41.2514C144.057 40.8404 143.91 40.572 143.612 40.4463C143.314 40.3172 142.916 40.2561 142.418 40.2561H140.829V42.2636H140.826Z" fill="#219DD9"/>
<path d="M152.621 39.9742C152.621 40.4226 152.544 40.837 152.39 41.2208C152.236 41.6047 152.022 41.9342 151.744 42.2127C151.47 42.4912 151.139 42.712 150.754 42.8683C150.369 43.0246 149.948 43.1027 149.49 43.1027C149.031 43.1027 148.62 43.0246 148.239 42.8683C147.854 42.712 147.526 42.4946 147.248 42.2127C146.974 41.9342 146.757 41.6013 146.603 41.2208C146.449 40.8404 146.372 40.4226 146.372 39.9742C146.372 39.5258 146.449 39.108 146.603 38.7276C146.757 38.3471 146.971 38.0142 147.248 37.7357C147.526 37.4571 147.854 37.2397 148.239 37.0801C148.623 36.9238 149.041 36.8457 149.49 36.8457C149.938 36.8457 150.369 36.9238 150.754 37.0801C151.139 37.2363 151.467 37.4537 151.744 37.7357C152.022 38.0176 152.236 38.3471 152.39 38.7276C152.544 39.108 152.621 39.5258 152.621 39.9742ZM151.721 39.9742C151.721 39.6447 151.667 39.3322 151.564 39.0401C151.46 38.7479 151.309 38.4932 151.119 38.2758C150.928 38.0584 150.694 37.8885 150.416 37.7595C150.142 37.6338 149.831 37.5692 149.49 37.5692C149.148 37.5692 148.841 37.6338 148.57 37.7595C148.299 37.8851 148.068 38.0584 147.874 38.2758C147.683 38.4932 147.533 38.7445 147.429 39.0401C147.325 39.3322 147.272 39.6447 147.272 39.9742C147.272 40.3037 147.325 40.6162 147.429 40.9083C147.533 41.2005 147.68 41.4552 147.874 41.6726C148.065 41.89 148.299 42.0599 148.57 42.1821C148.841 42.3044 149.148 42.3656 149.49 42.3656C149.831 42.3656 150.142 42.3044 150.416 42.1821C150.691 42.0599 150.925 41.89 151.119 41.6726C151.309 41.4552 151.46 41.2038 151.564 40.9083C151.667 40.6162 151.721 40.3037 151.721 39.9742Z" fill="#219DD9"/>
<path d="M155.3 46.0002H154.45V36.9986H155.3V38.0278H155.337C155.577 37.6372 155.902 37.345 156.307 37.1446C156.711 36.9442 157.123 36.8457 157.541 36.8457C157.999 36.8457 158.414 36.9272 158.785 37.0869C159.157 37.2465 159.474 37.4673 159.735 37.7493C159.996 38.0312 160.204 38.3607 160.347 38.7411C160.495 39.1216 160.565 39.5326 160.565 39.9742C160.565 40.4158 160.491 40.8268 160.347 41.2072C160.2 41.5877 159.996 41.9206 159.735 42.1991C159.471 42.4777 159.157 42.6985 158.785 42.8615C158.414 43.0246 157.999 43.1027 157.541 43.1027C157.123 43.1027 156.711 43.0042 156.307 42.8038C155.902 42.6033 155.577 42.318 155.337 41.9444H155.3V46.0002ZM159.668 39.9742C159.668 39.6447 159.618 39.3322 159.518 39.0401C159.418 38.7479 159.274 38.4932 159.086 38.2758C158.899 38.0584 158.668 37.8885 158.391 37.7595C158.113 37.6304 157.802 37.5692 157.451 37.5692C157.126 37.5692 156.825 37.6304 156.548 37.7527C156.273 37.8749 156.036 38.0448 155.835 38.2622C155.634 38.4796 155.477 38.7309 155.367 39.0265C155.256 39.322 155.199 39.6345 155.199 39.9742C155.199 40.3139 155.256 40.6298 155.367 40.9219C155.48 41.214 155.634 41.4654 155.835 41.6794C156.036 41.89 156.273 42.0599 156.548 42.1821C156.822 42.3044 157.123 42.3656 157.451 42.3656C157.802 42.3656 158.113 42.3044 158.391 42.1821C158.665 42.0599 158.899 41.89 159.086 41.6726C159.274 41.4552 159.418 41.2038 159.518 40.9083C159.618 40.6162 159.668 40.3037 159.668 39.9742Z" fill="#219DD9"/>
<path d="M166.094 39.0978C166.094 38.5849 165.961 38.201 165.693 37.9497C165.425 37.6983 165.037 37.5692 164.529 37.5692C164.178 37.5692 163.853 37.6338 163.552 37.7595C163.251 37.8851 162.997 38.055 162.79 38.269L162.315 37.6983C162.555 37.4537 162.877 37.2499 163.271 37.0869C163.666 36.9272 164.118 36.8457 164.616 36.8457C164.934 36.8457 165.228 36.8899 165.506 36.9782C165.78 37.0665 166.024 37.2024 166.232 37.379C166.439 37.5556 166.603 37.7832 166.72 38.0516C166.837 38.3233 166.894 38.6392 166.894 39.0061V41.6115C166.894 41.8391 166.904 42.0768 166.921 42.3248C166.937 42.5728 166.961 42.7766 166.994 42.9464H166.232C166.205 42.8038 166.185 42.6441 166.168 42.4777C166.151 42.3112 166.145 42.1414 166.145 41.9817H166.118C165.85 42.3792 165.549 42.6679 165.211 42.8411C164.873 43.0144 164.465 43.1027 163.99 43.1027C163.766 43.1027 163.532 43.0721 163.295 43.0076C163.057 42.943 162.84 42.8411 162.642 42.6951C162.445 42.549 162.284 42.3622 162.154 42.1346C162.024 41.9036 161.96 41.6251 161.96 41.2922C161.96 40.8336 162.074 40.4701 162.304 40.2018C162.535 39.9334 162.84 39.733 163.224 39.6005C163.609 39.4681 164.047 39.3831 164.546 39.3458C165.044 39.3084 165.559 39.288 166.091 39.288V39.0978H166.094ZM165.844 39.9742C165.492 39.9742 165.141 39.9878 164.787 40.0183C164.432 40.0489 164.111 40.1067 163.823 40.195C163.535 40.2833 163.298 40.4124 163.117 40.5822C162.933 40.7521 162.843 40.9763 162.843 41.2548C162.843 41.4654 162.883 41.6454 162.963 41.7881C163.044 41.9308 163.151 42.0497 163.285 42.138C163.418 42.2263 163.566 42.2908 163.729 42.3282C163.893 42.3656 164.057 42.3859 164.225 42.3859C164.526 42.3859 164.793 42.3316 165.027 42.2263C165.262 42.121 165.459 41.9749 165.616 41.7949C165.773 41.6115 165.897 41.4043 165.981 41.1665C166.064 40.9287 166.104 40.6807 166.104 40.4158V39.9708H165.854L165.844 39.9742Z" fill="#219DD9"/>
<path d="M1.6694 39.5799C24.3755 35.3066 47.386 32.8847 70.4332 31.6041C93.7682 30.3065 117.147 30.1197 140.512 30.3337C153.785 30.456 167.058 30.7073 180.331 30.9689C181.094 30.9825 182.512 30.6903 182.893 29.9091C183.275 29.1278 182.562 28.8187 181.856 28.8051C158.22 28.3397 134.578 27.9015 110.935 28.1869C87.5631 28.4688 64.178 29.4539 40.9234 31.886C27.958 33.2414 15.0395 35.0655 2.22134 37.4806C1.56905 37.6029 0.124 37.9358 0.0102691 38.7884C-0.103462 39.641 1.1342 39.6818 1.6694 39.5833V39.5799Z" fill="#219DD9"/>
</svg>
