<svg width="328" height="588" viewBox="0 0 328 588" fill="none" xmlns="http://www.w3.org/2000/svg">
<path opacity="0.9" d="M33.5475 66.4515H43.5635L51.2268 113.903H43.8324L42.488 104.48V104.616H34.0853L32.7409 113.903H25.8843L33.5475 66.4515ZM41.6141 98.1761L38.3203 74.7216H38.1858L34.9592 98.1761H41.6141Z" fill="#F7F7F7"/>
<path opacity="0.9" d="M1.53624 107.073L1.5 107.163V107.26V113.903V114.403H2H23.6453H24.1453V113.903V107.124V106.624H23.6453H10.6727L24.1091 73.2815L24.1453 73.1916V73.0946V66.4514V65.9514H23.6453H2.67222H2.17222V66.4514V73.2302V73.7302H2.67222H14.9726L1.53624 107.073Z" stroke="white"/>
<path opacity="0.9" d="M274.417 66.4514H294.469V73.1917H281.77V85.6611H291.863V92.4014H281.77V106.893H294.469V113.633H274.417V66.4514Z" fill="#F7F7F7"/>
<path opacity="0.9" d="M258.465 113.903C257.128 113.903 255.992 113.813 255.056 113.633V106.893C255.769 107.073 256.571 107.163 257.462 107.163C258.933 107.163 260.025 106.803 260.738 106.084C261.45 105.32 261.807 104.174 261.807 102.647V66.4514H269.159V102.444C269.159 106.309 268.268 109.185 266.486 111.072C264.748 112.959 262.074 113.903 258.465 113.903Z" fill="#F7F7F7"/>
<path opacity="0.9" d="M228.202 66.4514H237.426L244.578 94.6931H244.712V66.4514H251.262V113.633H243.709L234.886 79.1905H234.752V113.633H228.202V66.4514Z" fill="#F7F7F7"/>
<path opacity="0.9" d="M207.056 66.4514H217.015L224.635 113.633H217.283L215.946 104.264V104.399H207.591L206.254 113.633H199.437L207.056 66.4514ZM215.077 97.9958L211.802 74.6745H211.668L208.46 97.9958H215.077Z" fill="#F7F7F7"/>
<path opacity="0.9" d="M185.425 113.903C184.089 113.903 182.952 113.813 182.017 113.633V106.893C182.73 107.073 183.532 107.163 184.423 107.163C185.893 107.163 186.985 106.803 187.698 106.084C188.411 105.32 188.767 104.174 188.767 102.647V66.4514H196.12V102.444C196.12 106.309 195.229 109.185 193.446 111.072C191.708 112.959 189.035 113.903 185.425 113.903Z" fill="#F7F7F7"/>
<path opacity="0.9" d="M170.829 66.4514H178.181V113.633H170.829V66.4514Z" fill="#F7F7F7"/>
<path opacity="0.9" d="M143.368 66.4514H150.787L155.6 103.051H155.734L160.546 66.4514H167.297L160.212 113.633H150.453L143.368 66.4514Z" fill="#F7F7F7"/>
<path opacity="0.9" d="M119.619 107.028L133.254 73.1917H120.288V66.4514H141.142V73.0569L127.506 106.893H141.142V113.633H119.619V107.028Z" fill="#F7F7F7"/>
<path opacity="0.9" d="M99.6842 66.4514H109.643L117.263 113.633H109.911L108.574 104.264V104.399H100.219L98.8821 113.633H92.0645L99.6842 66.4514ZM107.705 97.9958L104.43 74.6745H104.296L101.088 97.9958H107.705Z" fill="#F7F7F7"/>
<path opacity="0.9" d="M67.0444 65.9514H66.5444V66.4514V113.633V114.133H67.0444H74.3968H74.8968V113.633V93.9124H76.9367C78.5636 93.9124 79.5551 94.3238 80.0855 95.0013L80.0904 95.0075L80.0954 95.0136C80.6893 95.7247 81.0486 97.0747 81.0486 99.2091V107.837C81.0486 109.587 81.0927 110.831 81.1866 111.542C81.281 112.256 81.4685 113.008 81.7451 113.798L81.8623 114.133H82.217H89.7031H90.4699L90.1606 113.432C89.8231 112.666 89.615 111.907 89.5318 111.153C89.4453 110.324 89.401 109.242 89.401 107.904V99.6135C89.401 96.7927 89.0191 94.4906 88.2221 92.7385C87.5851 91.256 86.5468 90.1811 85.1294 89.524C87.9765 87.9192 89.3342 84.7392 89.3342 80.2015V77.3032C89.3342 73.5524 88.451 70.6813 86.5847 68.7977C84.7134 66.864 81.7918 65.9514 77.9393 65.9514H67.0444ZM79.9905 85.1743L79.9852 85.1796L79.98 85.1852C79.3949 85.8121 78.4601 86.1722 77.0704 86.1722H74.8968V73.6917H77.7388C78.9332 73.6917 79.6935 74.0407 80.1476 74.6396L80.1531 74.6468L80.1588 74.6538C80.6729 75.2833 80.9818 76.3762 80.9818 78.0447V81.6844C80.9818 83.4334 80.6095 84.5501 79.9905 85.1743Z" stroke="white"/>
<path opacity="0.9" d="M291.082 325.072C287.535 325.072 284.831 324.074 282.969 322.079C281.107 320.04 280.176 317.136 280.176 313.368V288.897C280.176 285.129 281.107 282.248 282.969 280.253C284.831 278.213 287.535 277.194 291.082 277.194C294.628 277.194 297.332 278.213 299.194 280.253C301.056 282.248 301.987 285.129 301.987 288.897V292.887H295.072V288.432C295.072 285.373 293.808 283.844 291.281 283.844C288.754 283.844 287.491 285.373 287.491 288.432V313.9C287.491 316.915 288.754 318.422 291.281 318.422C293.808 318.422 295.072 316.915 295.072 313.9V304.79H291.414V298.14H301.987V313.368C301.987 317.136 301.056 320.04 299.194 322.079C297.332 324.074 294.628 325.072 291.082 325.072Z" fill="#F7F7F7"/>
<path opacity="0.9" d="M264.657 325.072C261.066 325.072 258.317 324.052 256.411 322.013C254.505 319.974 253.552 317.092 253.552 313.368V288.897C253.552 285.173 254.505 282.292 256.411 280.253C258.317 278.213 261.066 277.194 264.657 277.194C268.248 277.194 270.996 278.213 272.902 280.253C274.809 282.292 275.762 285.173 275.762 288.897V313.368C275.762 317.092 274.809 319.974 272.902 322.013C270.996 324.052 268.248 325.072 264.657 325.072ZM264.657 318.422C267.184 318.422 268.447 316.892 268.447 313.834V288.432C268.447 285.373 267.184 283.844 264.657 283.844C262.13 283.844 260.866 285.373 260.866 288.432V313.834C260.866 316.892 262.13 318.422 264.657 318.422Z" fill="#F7F7F7"/>
<path opacity="0.9" d="M225.705 277.859H234.881L241.996 305.721H242.129V277.859H248.646V324.407H241.132L232.354 290.427H232.221V324.407H225.705V277.859Z" fill="#F7F7F7"/>
<path opacity="0.9" d="M204.667 277.859H214.575L222.155 324.407H214.841L213.511 315.163V315.296H205.199L203.869 324.407H197.086L204.667 277.859ZM212.646 308.979L209.388 285.971H209.255L206.063 308.979H212.646Z" fill="#F7F7F7"/>
<path opacity="0.9" d="M173.579 277.859H180.96L185.748 313.967H185.881L190.669 277.859H197.385L190.336 324.407H180.628L173.579 277.859Z" fill="#F7F7F7"/>
<path opacity="0.9" d="M159.586 325.072C155.996 325.072 153.247 324.052 151.341 322.013C149.435 319.974 148.481 317.092 148.481 313.368V288.897C148.481 285.173 149.435 282.292 151.341 280.253C153.247 278.213 155.996 277.194 159.586 277.194C163.177 277.194 165.926 278.213 167.832 280.253C169.738 282.292 170.691 285.173 170.691 288.897V313.368C170.691 317.092 169.738 319.974 167.832 322.013C165.926 324.052 163.177 325.072 159.586 325.072ZM159.586 318.422C162.113 318.422 163.377 316.892 163.377 313.834V288.432C163.377 285.373 162.113 283.844 159.586 283.844C157.06 283.844 155.796 285.373 155.796 288.432V313.834C155.796 316.892 157.06 318.422 159.586 318.422Z" fill="#F7F7F7"/>
<path opacity="0.9" d="M123.459 317.89L137.024 284.508H124.124V277.859H144.871V284.375L131.306 317.757H144.871V324.406H123.459V317.89ZM125.587 267.086H131.106L134.497 270.744L137.889 267.086H143.408L137.955 274.733H131.04L125.587 267.086Z" fill="#F7F7F7"/>
<path opacity="0.9" d="M103.623 277.859H113.531L121.112 324.407H113.797L112.467 315.163V315.296H104.155L102.825 324.407H96.0425L103.623 277.859ZM111.603 308.979L108.344 285.971H108.211L105.02 308.979H111.603Z" fill="#F7F7F7"/>
<path opacity="0.9" d="M82.3703 325.072C78.8238 325.072 76.1196 324.074 74.2577 322.079C72.3958 320.04 71.4648 317.136 71.4648 313.368V288.897C71.4648 285.129 72.3958 282.248 74.2577 280.253C76.1196 278.213 78.8238 277.194 82.3703 277.194C85.9168 277.194 88.621 278.213 90.4829 280.253C92.3449 282.248 93.2758 285.129 93.2758 288.897V292.887H86.3601V288.432C86.3601 285.373 85.0967 283.844 82.5698 283.844C80.0429 283.844 78.7795 285.373 78.7795 288.432V313.9C78.7795 316.915 80.0429 318.422 82.5698 318.422C85.0967 318.422 86.3601 316.915 86.3601 313.9V304.79H82.7028V298.14H93.2758V313.368C93.2758 317.136 92.3449 320.04 90.4829 322.079C88.621 324.074 85.9168 325.072 82.3703 325.072Z" fill="#F7F7F7"/>
<path opacity="0.9" d="M43.6162 277.859H52.7928L59.9079 305.721H60.0409V277.859H66.5576V324.407H59.0435L50.2659 290.427H50.1329V324.407H43.6162V277.859Z" fill="#F7F7F7"/>
<path opacity="0.9" d="M22.5806 277.359H22.1555L22.0871 277.778L14.5065 324.326L14.412 324.907H15H21.7827H22.215L22.2774 324.479L23.5449 315.796H31.0107L32.2598 324.478L32.3215 324.907H32.7547H40.0693H40.6573L40.5628 324.326L32.9822 277.778L32.9138 277.359H32.4887H22.5806ZM24.5512 308.479L27.2398 289.099L29.9845 308.479H24.5512Z" stroke="white"/>
<path opacity="0.9" d="M293.619 390.523C289.495 390.523 286.351 389.534 284.186 387.557C282.021 385.536 280.939 382.658 280.939 378.924V354.671C280.939 350.936 282.021 348.08 284.186 346.103C286.351 344.082 289.495 343.072 293.619 343.072C297.742 343.072 300.886 344.082 303.051 346.103C305.216 348.08 306.298 350.936 306.298 354.671V358.625H298.258V354.21C298.258 351.178 296.789 349.662 293.851 349.662C290.913 349.662 289.444 351.178 289.444 354.21V379.451C289.444 382.439 290.913 383.933 293.851 383.933C296.789 383.933 298.258 382.439 298.258 379.451V370.422H294.005V363.832H306.298V378.924C306.298 382.658 305.216 385.536 303.051 387.557C300.886 389.534 297.742 390.523 293.619 390.523Z" fill="#F7F7F7"/>
<path opacity="0.9" d="M262.894 390.523C258.719 390.523 255.523 389.513 253.306 387.491C251.09 385.47 249.982 382.614 249.982 378.924V354.671C249.982 350.98 251.09 348.124 253.306 346.103C255.523 344.082 258.719 343.072 262.894 343.072C267.069 343.072 270.264 344.082 272.481 346.103C274.697 348.124 275.805 350.98 275.805 354.671V378.924C275.805 382.614 274.697 385.47 272.481 387.491C270.264 389.513 267.069 390.523 262.894 390.523ZM262.894 383.933C265.831 383.933 267.3 382.417 267.3 379.385V354.21C267.3 351.178 265.831 349.662 262.894 349.662C259.956 349.662 258.487 351.178 258.487 354.21V379.385C258.487 382.417 259.956 383.933 262.894 383.933Z" fill="#F7F7F7"/>
<path opacity="0.9" d="M217.607 343.73H228.277L236.55 371.344H236.704V343.73H244.281V389.864H235.544L225.339 356.186H225.184V389.864H217.607V343.73Z" fill="#F7F7F7"/>
<path opacity="0.9" d="M185.843 343.73H194.425L199.992 379.516H200.147L205.713 343.73H213.522L205.327 389.864H194.039L185.843 343.73Z" fill="#F7F7F7"/>
<path opacity="0.9" d="M165.814 343.73H177.334L186.148 389.864H177.644L176.097 380.703V380.835H166.433L164.887 389.864H157L165.814 343.73ZM175.092 374.574L171.304 351.771H171.149L167.438 374.574H175.092Z" fill="#F7F7F7"/>
<path opacity="0.9" d="M136.5 389.864V390.289L136.92 390.357C138.037 390.538 139.38 390.627 140.943 390.627C145.178 390.627 148.416 389.693 150.557 387.73C152.757 385.758 153.813 382.789 153.813 378.923V343.73V343.23H153.313H144.809H144.309V343.73V379.121C144.309 380.521 143.926 381.484 143.242 382.107C142.546 382.696 141.425 383.037 139.783 383.037C138.78 383.037 137.888 382.951 137.104 382.784L136.5 382.655V383.273V389.864Z" stroke="white"/>
<path opacity="0.9" d="M220.135 409.182H229.955L237.468 455.315H230.218L228.9 446.154V446.286H220.662L219.344 455.315H212.622L220.135 409.182ZM228.043 440.025L224.814 417.222H224.682L221.519 440.025H228.043Z" fill="#F7F7F7"/>
<path opacity="0.9" d="M191.428 409.182H202.104C205.707 409.182 208.409 410.148 210.211 412.081C212.012 414.015 212.913 416.848 212.913 420.583V425.131C212.913 428.865 212.012 431.699 210.211 433.632C208.409 435.565 205.707 436.532 202.104 436.532H198.677V455.315H191.428V409.182ZM202.104 429.942C203.291 429.942 204.169 429.612 204.74 428.953C205.356 428.294 205.663 427.174 205.663 425.592V420.122C205.663 418.54 205.356 417.42 204.74 416.761C204.169 416.102 203.291 415.772 202.104 415.772H198.677V429.942H202.104Z" fill="#F7F7F7"/>
<path opacity="0.9" d="M175.457 455.974C171.942 455.974 169.262 454.985 167.416 453.008C165.571 450.987 164.648 448.109 164.648 444.375V409.182H171.898V444.902C171.898 446.484 172.206 447.626 172.821 448.329C173.48 449.032 174.402 449.383 175.589 449.383C176.775 449.383 177.676 449.032 178.291 448.329C178.95 447.626 179.279 446.484 179.279 444.902V409.182H186.265V444.375C186.265 448.109 185.343 450.987 183.497 453.008C181.652 454.985 178.972 455.974 175.457 455.974Z" fill="#F7F7F7"/>
<path opacity="0.9" d="M146.573 415.772H138.994V409.182H161.401V415.772H153.822V455.315H146.573V415.772Z" fill="#F7F7F7"/>
<path opacity="0.9" d="M125.808 455.974C122.293 455.974 119.635 454.986 117.833 453.009C116.032 450.988 115.131 448.11 115.131 444.375V441.739H121.985V444.902C121.985 447.89 123.238 449.384 125.742 449.384C126.972 449.384 127.895 449.032 128.51 448.329C129.169 447.583 129.499 446.396 129.499 444.771C129.499 442.837 129.059 441.146 128.18 439.696C127.302 438.202 125.676 436.423 123.304 434.358C120.316 431.721 118.229 429.349 117.043 427.24C115.856 425.087 115.263 422.671 115.263 419.99C115.263 416.344 116.186 413.532 118.031 411.555C119.876 409.534 122.557 408.523 126.072 408.523C129.543 408.523 132.157 409.534 133.914 411.555C135.716 413.532 136.616 416.388 136.616 420.122V422.033H129.762V419.661C129.762 418.079 129.455 416.937 128.84 416.234C128.224 415.487 127.324 415.113 126.137 415.113C123.721 415.113 122.513 416.585 122.513 419.529C122.513 421.199 122.952 422.758 123.831 424.208C124.753 425.658 126.401 427.416 128.774 429.481C131.805 432.117 133.892 434.511 135.035 436.664C136.177 438.817 136.748 441.344 136.748 444.243C136.748 448.022 135.803 450.922 133.914 452.943C132.069 454.964 129.367 455.974 125.808 455.974Z" fill="#F7F7F7"/>
<path opacity="0.9" d="M95.7265 409.182H105.546L113.059 455.315H105.81L104.492 446.154V446.286H96.2538L94.9357 455.315H88.2134L95.7265 409.182ZM103.635 440.025L100.406 417.222H100.274L97.1105 440.025H103.635Z" fill="#F7F7F7"/>
<path opacity="0.9" d="M62 408.682H61.5V409.182V455.315V455.815H62H68.4587H68.9587V455.315V425.062L76.8058 455.44L76.9026 455.815H77.2899H84.7371H85.2371V455.315V409.182V408.682H84.7371H78.2785H77.7785V409.182V433.333L71.5793 409.058L71.4832 408.682H71.0949H62Z" stroke="white"/>
<path opacity="0.9" d="M290.859 521.426C287.344 521.426 284.664 520.437 282.818 518.46C280.973 516.439 280.05 513.561 280.05 509.827V485.574C280.05 481.839 280.973 478.983 282.818 477.006C284.664 474.985 287.344 473.974 290.859 473.974C294.374 473.974 297.054 474.985 298.899 477.006C300.744 478.983 301.667 481.839 301.667 485.574V489.528H294.813V485.112C294.813 482.081 293.561 480.565 291.056 480.565C288.552 480.565 287.3 482.081 287.3 485.112V510.354C287.3 513.341 288.552 514.835 291.056 514.835C293.561 514.835 294.813 513.341 294.813 510.354V501.325H291.188V494.734H301.667V509.827C301.667 513.561 300.744 516.439 298.899 518.46C297.054 520.437 294.374 521.426 290.859 521.426Z" fill="#F7F7F7"/>
<path opacity="0.9" d="M264.668 521.426C261.109 521.426 258.385 520.415 256.496 518.394C254.606 516.373 253.662 513.517 253.662 509.827V485.574C253.662 481.883 254.606 479.027 256.496 477.006C258.385 474.985 261.109 473.974 264.668 473.974C268.227 473.974 270.951 474.985 272.84 477.006C274.729 479.027 275.674 481.883 275.674 485.574V509.827C275.674 513.517 274.729 516.373 272.84 518.394C270.951 520.415 268.227 521.426 264.668 521.426ZM264.668 514.835C267.172 514.835 268.424 513.319 268.424 510.288V485.112C268.424 482.081 267.172 480.565 264.668 480.565C262.163 480.565 260.911 482.081 260.911 485.112V510.288C260.911 513.319 262.163 514.835 264.668 514.835Z" fill="#F7F7F7"/>
<path opacity="0.9" d="M226.062 474.634H235.157L242.209 502.248H242.341V474.634H248.8V520.767H241.352L232.653 487.09H232.521V520.767H226.062V474.634Z" fill="#F7F7F7"/>
<path opacity="0.9" d="M202.121 474.634H221.892V481.224H209.37V493.416H219.322V500.007H209.37V514.176H221.892V520.767H202.121V474.634Z" fill="#F7F7F7"/>
<path opacity="0.9" d="M186.446 474.634C190.049 474.634 192.751 475.6 194.553 477.533C196.354 479.467 197.255 482.3 197.255 486.035V509.365C197.255 513.1 196.354 515.934 194.553 517.867C192.751 519.8 190.049 520.767 186.446 520.767H175.374V499.809H172.211V493.614H175.374V474.634H186.446ZM190.005 485.706C190.005 484.124 189.676 482.981 189.017 482.278C188.401 481.575 187.501 481.224 186.315 481.224H182.624V493.614H186.315V499.809H182.624V514.176H186.315C187.501 514.176 188.401 513.825 189.017 513.122C189.676 512.419 190.005 511.276 190.005 509.695V485.706Z" fill="#F7F7F7"/>
<path opacity="0.9" d="M158.346 521.426C154.788 521.426 152.064 520.415 150.174 518.394C148.285 516.373 147.34 513.517 147.34 509.827V485.574C147.34 481.883 148.285 479.027 150.174 477.006C152.064 474.985 154.788 473.974 158.346 473.974C161.905 473.974 164.629 474.985 166.519 477.006C168.408 479.027 169.352 481.883 169.352 485.574V509.827C169.352 513.517 168.408 516.373 166.519 518.394C164.629 520.415 161.905 521.426 158.346 521.426ZM158.346 514.835C160.851 514.835 162.103 513.319 162.103 510.288V485.112C162.103 482.081 160.851 480.565 158.346 480.565C155.842 480.565 154.59 482.081 154.59 485.112V510.288C154.59 513.319 155.842 514.835 158.346 514.835Z" fill="#F7F7F7"/>
<path opacity="0.9" d="M121.221 474.634H132.161C135.896 474.634 138.62 475.512 140.334 477.27C142.047 478.983 142.904 481.641 142.904 485.244V487.09C142.904 489.462 142.508 491.395 141.718 492.889C140.971 494.383 139.806 495.459 138.225 496.118V496.25C141.827 497.48 143.629 500.688 143.629 505.872V509.827C143.629 513.385 142.684 516.109 140.795 517.999C138.95 519.844 136.225 520.767 132.623 520.767H121.221V474.634ZM131.305 493.416C132.754 493.416 133.831 493.043 134.534 492.296C135.281 491.549 135.654 490.297 135.654 488.539V485.969C135.654 484.3 135.347 483.091 134.732 482.344C134.16 481.597 133.238 481.224 131.964 481.224H128.471V493.416H131.305ZM132.623 514.176C133.897 514.176 134.841 513.847 135.457 513.188C136.072 512.485 136.379 511.298 136.379 509.629V505.609C136.379 503.5 136.006 502.05 135.259 501.259C134.556 500.424 133.37 500.007 131.7 500.007H128.471V514.176H132.623Z" fill="#F7F7F7"/>
<path opacity="0.9" d="M105.313 521.426C101.754 521.426 99.0298 520.415 97.1405 518.394C95.2513 516.373 94.3066 513.517 94.3066 509.827V485.574C94.3066 481.883 95.2513 479.027 97.1405 477.006C99.0298 474.985 101.754 473.974 105.313 473.974C108.872 473.974 111.596 474.985 113.485 477.006C115.374 479.027 116.319 481.883 116.319 485.574V509.827C116.319 513.517 115.374 516.373 113.485 518.394C111.596 520.415 108.872 521.426 105.313 521.426ZM105.313 514.835C107.817 514.835 109.069 513.319 109.069 510.288V485.112C109.069 482.081 107.817 480.565 105.313 480.565C102.808 480.565 101.556 482.081 101.556 485.112V510.288C101.556 513.319 102.808 514.835 105.313 514.835Z" fill="#F7F7F7"/>
<path opacity="0.9" d="M72.4365 474.634H79.686V514.176H91.6147V520.767H72.4365V474.634Z" fill="#F7F7F7"/>
<path opacity="0.9" d="M57.3411 521.426C53.8262 521.426 51.168 520.437 49.3666 518.46C47.5652 516.439 46.6646 513.561 46.6646 509.827V507.19H53.5186V510.354C53.5186 513.341 54.7708 514.835 57.2752 514.835C58.5054 514.835 59.4281 514.484 60.0432 513.781C60.7022 513.034 61.0317 511.848 61.0317 510.222C61.0317 508.289 60.5924 506.597 59.7137 505.147C58.8349 503.653 57.2093 501.874 54.8367 499.809C51.849 497.173 49.7621 494.8 48.5758 492.691C47.3895 490.538 46.7964 488.122 46.7964 485.442C46.7964 481.795 47.719 478.983 49.5643 477.006C51.4097 474.985 54.0898 473.974 57.6047 473.974C61.0757 473.974 63.6899 474.985 65.4474 477.006C67.2487 478.983 68.1494 481.839 68.1494 485.574V487.485H61.2954V485.112C61.2954 483.531 60.9878 482.388 60.3727 481.685C59.7576 480.938 58.8569 480.565 57.6706 480.565C55.2541 480.565 54.0459 482.037 54.0459 484.98C54.0459 486.65 54.4852 488.21 55.364 489.66C56.2866 491.11 57.9342 492.867 60.3068 494.932C63.3384 497.568 65.4254 499.963 66.5677 502.116C67.7101 504.269 68.2812 506.795 68.2812 509.695C68.2812 513.473 67.3366 516.373 65.4474 518.394C63.602 520.415 60.8999 521.426 57.3411 521.426Z" fill="#F7F7F7"/>
<path opacity="0.9" d="M23.4686 518.736C25.4777 520.885 28.3507 521.926 32.0061 521.926C35.6614 521.926 38.5344 520.885 40.5435 518.736C42.545 516.595 43.5121 513.601 43.5121 509.827V485.574C43.5121 481.8 42.545 478.806 40.5435 476.665C38.5344 474.515 35.6614 473.475 32.0061 473.475C28.3507 473.475 25.4777 474.515 23.4686 476.665C21.4672 478.806 20.5 481.8 20.5 485.574V509.827C20.5 513.601 21.4672 516.595 23.4686 518.736ZM35.2626 510.288C35.2626 511.747 34.9592 512.749 34.438 513.38C33.9319 513.993 33.1533 514.335 32.0061 514.335C30.8588 514.335 30.0803 513.993 29.5741 513.38C29.0529 512.749 28.7495 511.747 28.7495 510.288V485.112C28.7495 483.653 29.0529 482.651 29.5741 482.02C30.0803 481.408 30.8588 481.065 32.0061 481.065C33.1533 481.065 33.9319 481.408 34.438 482.02C34.9592 482.651 35.2626 483.653 35.2626 485.112V510.288Z" stroke="white"/>
<path opacity="0.9" d="M168.496 540.085H175.745V586.218H168.496V540.085Z" fill="#F7F7F7"/>
<path opacity="0.9" d="M137.09 540.085H146.91L154.423 586.218H147.174L145.856 577.058V577.189H137.618L136.299 586.218H129.577L137.09 540.085ZM144.999 570.928L141.77 548.125H141.638L138.474 570.928H144.999Z" fill="#F7F7F7"/>
<path opacity="0.9" d="M103.812 540.085H111.062V558.868H118.839V540.085H126.088V586.218H118.839V565.458H111.062V586.218H103.812V540.085Z" fill="#F7F7F7"/>
<path opacity="0.9" d="M82.9633 540.085H92.7831L100.296 586.218H93.0468L91.7287 577.058V577.189H83.4906L82.1725 586.218H75.4502L82.9633 540.085ZM90.8719 570.928L87.6426 548.125H87.5108L84.3473 570.928H90.8719Z" fill="#F7F7F7"/>
<path opacity="0.9" d="M50.7803 540.085H61.5227C65.2573 540.085 67.9814 540.964 69.6949 542.721C71.4084 544.435 72.2652 547.093 72.2652 550.696V553.53C72.2652 558.319 70.6835 561.35 67.5201 562.624V562.756C69.2775 563.283 70.5078 564.36 71.2107 565.986C71.9577 567.611 72.3311 569.786 72.3311 572.51V580.616C72.3311 581.934 72.3751 583.011 72.4629 583.846C72.5508 584.637 72.7705 585.427 73.122 586.218H65.7406C65.477 585.471 65.3013 584.768 65.2134 584.109C65.1255 583.45 65.0816 582.264 65.0816 580.55V572.115C65.0816 570.006 64.7301 568.534 64.0271 567.699C63.3681 566.864 62.2038 566.447 60.5342 566.447H58.0298V586.218H50.7803V540.085ZM60.666 559.856C62.1159 559.856 63.1923 559.483 63.8953 558.736C64.6422 557.989 65.0157 556.737 65.0157 554.979V551.421C65.0157 549.751 64.7081 548.543 64.093 547.796C63.5219 547.049 62.5992 546.675 61.325 546.675H58.0298V559.856H60.666Z" fill="#F7F7F7"/>
<path opacity="0.9" d="M32.4428 546.675H24.8638V540.085H47.2714V546.675H39.6923V586.218H32.4428V546.675Z" fill="#F7F7F7"/>
<path opacity="0.9" d="M3.32881 584.244L3.3325 584.248C5.25602 586.359 8.06755 587.377 11.6766 587.377C15.3301 587.377 18.1838 586.337 20.1502 584.185C22.1521 582.042 23.1168 579.003 23.1168 575.146C23.1168 572.18 22.5322 569.57 21.3449 567.333C20.1611 565.102 18.0222 562.66 14.9704 560.006C12.612 557.954 11.0085 556.235 10.1242 554.847C9.29395 553.476 8.88133 552.007 8.88133 550.432C8.88133 549.016 9.17396 548.047 9.67398 547.437C10.1585 546.847 10.9038 546.516 12.0061 546.516C13.08 546.516 13.8234 546.849 14.3222 547.455L14.327 547.46L14.3319 547.466C14.8279 548.033 15.1309 549.026 15.1309 550.564V552.936V553.436H15.6309H22.4849H22.9849V552.936V551.025C22.9849 547.218 22.0672 544.225 20.1563 542.125C18.2776 539.967 15.5077 538.926 11.9402 538.926C8.32833 538.926 5.49767 539.967 3.53242 542.118C1.57551 544.216 0.631809 547.166 0.631809 550.893C0.631809 553.65 1.2427 556.151 2.47332 558.384L2.4733 558.384L2.47545 558.388C3.70123 560.567 5.83519 562.983 8.84137 565.635L8.84392 565.638C11.2033 567.691 12.7806 569.428 13.6182 570.852L13.6181 570.852L13.6215 570.858C14.4466 572.219 14.8672 573.819 14.8672 575.673C14.8672 577.249 14.5447 578.288 14.0037 578.901L14.0024 578.903C13.51 579.466 12.7452 579.787 11.6107 579.787C10.461 579.787 9.68178 579.448 9.17642 578.845C8.65689 578.225 8.35409 577.241 8.35409 575.805V572.642V572.142H7.85409H1H0.5V572.642V575.278C0.5 579.089 1.41932 582.102 3.32884 584.244L3.32881 584.244Z" stroke="white"/>
<path opacity="0.9" d="M306.844 539.426H327.181V546.205H314.301V558.745H324.537V565.524H314.301V580.098H327.181V586.877H306.844V539.426Z" fill="#F7F7F7"/>
<path opacity="0.9" d="M270.369 539.426H281.011L285.756 573.387H285.892L290.637 539.426H301.28V586.877H294.23V550.95H294.094L288.671 586.877H282.435L277.012 550.95H276.876V586.877H270.369V539.426Z" fill="#F7F7F7"/>
<path opacity="0.9" d="M245.743 539.426H266.079V546.205H253.199V558.745H263.435V565.524H253.199V580.098H266.079V586.877H245.743V539.426Z" fill="#F7F7F7"/>
<path opacity="0.9" d="M218.403 539.426H229.452C233.294 539.426 236.095 540.33 237.858 542.137C239.62 543.9 240.502 546.634 240.502 550.34V553.255C240.502 558.18 238.875 561.299 235.621 562.609V562.745C237.429 563.287 238.694 564.394 239.417 566.066C240.185 567.739 240.569 569.975 240.569 572.777V581.115C240.569 582.471 240.615 583.578 240.705 584.437C240.795 585.25 241.021 586.064 241.383 586.877H233.791C233.519 586.109 233.339 585.386 233.248 584.708C233.158 584.03 233.113 582.81 233.113 581.047V572.371C233.113 570.201 232.751 568.688 232.028 567.829C231.35 566.97 230.153 566.541 228.435 566.541H225.859V586.877H218.403V539.426ZM228.571 559.762C230.062 559.762 231.17 559.378 231.893 558.61C232.661 557.841 233.045 556.554 233.045 554.746V551.085C233.045 549.368 232.729 548.125 232.096 547.357C231.508 546.589 230.559 546.205 229.249 546.205H225.859V559.762H228.571Z" fill="#F7F7F7"/>
<path opacity="0.9" d="M191.245 546.205V546.705H191.745H199.041V586.877V587.377H199.541H206.997H207.497V586.877V546.705H214.793H215.293V546.205V539.426V538.926H214.793H191.745H191.245V539.426V546.205Z" stroke="white"/>
<path opacity="0.9" d="M315.442 179.401C311.924 179.401 309.241 178.412 307.394 176.433C305.547 174.409 304.623 171.529 304.623 167.79V143.514C304.623 139.775 305.547 136.917 307.394 134.937C309.241 132.914 311.924 131.903 315.442 131.903C318.961 131.903 321.643 132.914 323.49 134.937C325.338 136.917 326.261 139.775 326.261 143.514V147.472H319.4V143.052C319.4 140.017 318.147 138.5 315.64 138.5C313.133 138.5 311.88 140.017 311.88 143.052V168.318C311.88 171.309 313.133 172.804 315.64 172.804C318.147 172.804 319.4 171.309 319.4 168.318V159.28H315.772V152.683H326.261V167.79C326.261 171.529 325.338 174.409 323.49 176.433C321.643 178.412 318.961 179.401 315.442 179.401Z" fill="#F7F7F7"/>
<path opacity="0.9" d="M289.227 179.401C285.665 179.401 282.938 178.39 281.047 176.367C279.156 174.344 278.21 171.485 278.21 167.79V143.514C278.21 139.819 279.156 136.961 281.047 134.937C282.938 132.914 285.665 131.903 289.227 131.903C292.789 131.903 295.516 132.914 297.407 134.937C299.298 136.961 300.244 139.819 300.244 143.514V167.79C300.244 171.485 299.298 174.344 297.407 176.367C295.516 178.39 292.789 179.401 289.227 179.401ZM289.227 172.804C291.734 172.804 292.987 171.287 292.987 168.252V143.052C292.987 140.017 291.734 138.5 289.227 138.5C286.72 138.5 285.467 140.017 285.467 143.052V168.252C285.467 171.287 286.72 172.804 289.227 172.804Z" fill="#F7F7F7"/>
<path opacity="0.9" d="M250.584 132.563H259.688L266.747 160.205H266.879V132.563H273.344V178.742H265.89L257.181 145.031H257.05V178.742H250.584V132.563Z" fill="#F7F7F7"/>
<path opacity="0.9" d="M229.713 132.563H239.543L247.064 178.742H239.807L238.487 169.572V169.704H230.241L228.922 178.742H222.193L229.713 132.563ZM237.63 163.437L234.397 140.611H234.265L231.099 163.437H237.63Z" fill="#F7F7F7"/>
<path opacity="0.9" d="M209.188 179.401C205.669 179.401 203.008 178.412 201.205 176.433C199.402 174.409 198.5 171.529 198.5 167.79V165.152H205.361V168.318C205.361 171.309 206.615 172.804 209.122 172.804C210.353 172.804 211.277 172.452 211.892 171.749C212.552 171.001 212.882 169.814 212.882 168.186C212.882 166.251 212.442 164.558 211.563 163.107C210.683 161.611 209.056 159.83 206.681 157.763C203.69 155.124 201.601 152.749 200.414 150.638C199.226 148.483 198.632 146.064 198.632 143.382C198.632 139.731 199.556 136.917 201.403 134.937C203.25 132.914 205.933 131.903 209.452 131.903C212.926 131.903 215.543 132.914 217.302 134.937C219.105 136.917 220.007 139.775 220.007 143.514V145.427H213.146V143.052C213.146 141.468 212.838 140.325 212.222 139.621C211.607 138.874 210.705 138.5 209.517 138.5C207.099 138.5 205.889 139.973 205.889 142.92C205.889 144.591 206.329 146.152 207.209 147.604C208.132 149.055 209.781 150.814 212.156 152.881C215.191 155.52 217.28 157.917 218.423 160.072C219.567 162.227 220.139 164.756 220.139 167.659C220.139 171.441 219.193 174.344 217.302 176.367C215.455 178.39 212.75 179.401 209.188 179.401Z" fill="#F7F7F7"/>
<path opacity="0.9" d="M187.061 132.563H194.318V178.742H187.061V132.563Z" fill="#F7F7F7"/>
<path opacity="0.9" d="M164.385 132.563H171.641V172.145H183.582V178.742H164.385V132.563Z" fill="#F7F7F7"/>
<path opacity="0.9" d="M148.398 179.402C144.879 179.402 142.197 178.412 140.349 176.433C138.502 174.41 137.579 171.529 137.579 167.791V132.563H144.835V168.319C144.835 169.902 145.143 171.046 145.759 171.749C146.419 172.453 147.342 172.805 148.53 172.805C149.717 172.805 150.619 172.453 151.234 171.749C151.894 171.046 152.224 169.902 152.224 168.319V132.563H159.217V167.791C159.217 171.529 158.293 174.41 156.446 176.433C154.599 178.412 151.916 179.402 148.398 179.402Z" fill="#F7F7F7"/>
<path opacity="0.9" d="M110.591 132.563H117.848V152.024L127.083 132.563H134.34L125.698 149.517L134.472 178.742H126.885L120.75 158.159L117.848 164.031V178.742H110.591V132.563Z" fill="#F7F7F7"/>
<path opacity="0.9" d="M97.8999 132.563H105.157V178.742H97.8999V132.563Z" fill="#F7F7F7"/>
<path opacity="0.9" d="M79.5431 139.16H71.9565V132.563H94.3863V139.16H86.7998V178.742H79.5431V139.16Z" fill="#F7F7F7"/>
<path opacity="0.9" d="M47.3911 132.563H58.1442C61.8825 132.563 64.6093 133.443 66.3245 135.202C68.0397 136.917 68.8973 139.578 68.8973 143.184V146.021C68.8973 150.815 67.3141 153.849 64.1475 155.125V155.257C65.9067 155.785 67.1381 156.862 67.8418 158.489C68.5895 160.117 68.9633 162.294 68.9633 165.02V173.135C68.9633 174.454 69.0073 175.532 69.0952 176.367C69.1832 177.159 69.4031 177.95 69.7549 178.742H62.3663C62.1024 177.994 61.9265 177.291 61.8385 176.631C61.7506 175.971 61.7066 174.784 61.7066 173.069V164.625C61.7066 162.513 61.3548 161.04 60.6511 160.205C59.9914 159.369 58.8259 158.951 57.1547 158.951H54.6478V178.742H47.3911V132.563ZM57.2866 152.354C58.738 152.354 59.8155 151.98 60.5191 151.233C61.2668 150.485 61.6406 149.232 61.6406 147.472V143.91C61.6406 142.239 61.3328 141.029 60.7171 140.282C60.1453 139.534 59.2217 139.16 57.9463 139.16H54.6478V152.354H57.2866Z" fill="#F7F7F7"/>
<path opacity="0.9" d="M26.5206 132.063H26.0954L26.0271 132.483L18.5065 178.662L18.412 179.242H19H25.7289H26.1612L26.2237 178.814L27.4806 170.204H34.8804L36.1191 178.813L36.1808 179.242H36.614H43.8707H44.4587L44.3642 178.662L36.8436 132.483L36.7753 132.063H36.3501H26.5206ZM28.4801 162.937L31.1429 143.743L33.8612 162.937H28.4801Z" stroke="white"/>
<path opacity="0.9" d="M169.675 249.086C166.513 249.086 164.103 248.197 162.443 246.419C160.784 244.601 159.954 242.013 159.954 238.654V216.843C159.954 213.484 160.784 210.916 162.443 209.137C164.103 207.32 166.513 206.411 169.675 206.411C172.836 206.411 175.246 207.32 176.906 209.137C178.565 210.916 179.395 213.484 179.395 216.843V220.399H173.231V216.428C173.231 213.701 172.105 212.338 169.852 212.338C167.6 212.338 166.474 213.701 166.474 216.428V239.129C166.474 241.816 167.6 243.159 169.852 243.159C172.105 243.159 173.231 241.816 173.231 239.129V231.008H169.971V225.081H179.395V238.654C179.395 242.013 178.565 244.601 176.906 246.419C175.246 248.197 172.836 249.086 169.675 249.086Z" fill="#F7F7F7"/>
<path opacity="0.9" d="M146.12 249.086C142.92 249.086 140.47 248.177 138.771 246.36C137.072 244.542 136.222 241.974 136.222 238.654V216.843C136.222 213.523 137.072 210.955 138.771 209.137C140.47 207.32 142.92 206.411 146.12 206.411C149.321 206.411 151.771 207.32 153.47 209.137C155.169 210.955 156.019 213.523 156.019 216.843V238.654C156.019 241.974 155.169 244.542 153.47 246.36C151.771 248.177 149.321 249.086 146.12 249.086ZM146.12 243.159C148.373 243.159 149.499 241.796 149.499 239.069V216.428C149.499 213.701 148.373 212.338 146.12 212.338C143.868 212.338 142.742 213.701 142.742 216.428V239.069C142.742 241.796 143.868 243.159 146.12 243.159Z" fill="#F7F7F7"/>
<path opacity="0.9" d="M112.461 207.004H119.041L123.308 239.188H123.427L127.694 207.004H133.681L127.398 248.494H118.744L112.461 207.004Z" fill="#F7F7F7"/>
<path opacity="0.9" d="M102.778 207.004H109.298V248.494H102.778V207.004Z" fill="#F7F7F7"/>
<path opacity="0.9" d="M79.5368 242.497L79.5 242.587V242.685V248.494V248.994H80H99.0854H99.5854V248.494V242.567V242.067H99.0854H87.7369L99.5486 213.001L99.5854 212.91V212.812V207.004V206.504H99.0854H80.5927H80.0927V207.004V212.931V213.431H80.5927H91.3485L79.5368 242.497ZM81.8967 196.902H80.9261L81.4896 197.692L86.3498 204.508L86.4994 204.718H86.7569H92.9211H93.1787L93.3283 204.508L98.1885 197.692L98.752 196.902H97.7814H92.8619H92.6436L92.4952 197.062L89.839 199.926L87.1828 197.062L87.0344 196.902H86.8162H81.8967Z" stroke="white"/>
<path opacity="0.9" d="M273.845 1.65906H283.665L291.178 47.7924H283.929L282.611 38.6316V38.7634H274.372L273.054 47.7924H266.332L273.845 1.65906ZM281.754 32.5025L278.524 9.69944H278.393L275.229 32.5025H281.754Z" fill="#F7F7F7"/>
<path opacity="0.9" d="M243.034 1.65906H250.349L255.094 37.4453H255.226L259.971 1.65906H266.628L259.642 47.7924H250.02L243.034 1.65906Z" fill="#F7F7F7"/>
<path opacity="0.9" d="M232.266 1.65906H239.516V47.7924H232.266V1.65906Z" fill="#F7F7F7"/>
<path opacity="0.9" d="M213.927 8.24953H206.348V1.65906H228.756V8.24953H221.177V47.7924H213.927V8.24953Z" fill="#F7F7F7"/>
<path opacity="0.9" d="M190.435 1.65906H200.255L207.768 47.7924H200.518L199.2 38.6316V38.7634H190.962L189.644 47.7924H182.922L190.435 1.65906ZM198.344 32.5025L195.114 9.69944H194.982L191.819 32.5025H198.344Z" fill="#F7F7F7"/>
<path opacity="0.9" d="M169.104 48.056C167.786 48.056 166.666 47.9681 165.743 47.7924V41.2019C166.446 41.3776 167.237 41.4655 168.116 41.4655C169.566 41.4655 170.642 41.114 171.345 40.411C172.048 39.6641 172.4 38.5437 172.4 37.0499V1.65906H179.649V36.8522C179.649 40.6307 178.77 43.4426 177.013 45.288C175.299 47.1333 172.663 48.056 169.104 48.056Z" fill="#F7F7F7"/>
<path opacity="0.9" d="M154.711 1.65906H161.96V47.7924H154.711V1.65906Z" fill="#F7F7F7"/>
<path opacity="0.9" d="M139.699 48.4514C136.228 48.4514 133.569 47.4628 131.724 45.4857C129.923 43.5085 129.022 40.7186 129.022 37.1158V12.3356C129.022 8.73282 129.923 5.94285 131.724 3.96571C133.569 1.98857 136.228 1 139.699 1C143.17 1 145.806 1.98857 147.607 3.96571C149.452 5.94285 150.375 8.73282 150.375 12.3356V17.2126H143.521V11.8743C143.521 9.01841 142.313 7.59047 139.896 7.59047C137.48 7.59047 136.271 9.01841 136.271 11.8743V37.643C136.271 40.455 137.48 41.8609 139.896 41.8609C142.313 41.8609 143.521 40.455 143.521 37.643V30.5912H150.375V37.1158C150.375 40.7186 149.452 43.5085 147.607 45.4857C145.806 47.4628 143.17 48.4514 139.699 48.4514Z" fill="#F7F7F7"/>
<path opacity="0.9" d="M116.804 1.65906H124.054V47.7924H116.804V1.65906Z" fill="#F7F7F7"/>
<path opacity="0.9" d="M88.6777 1.65906H97.7726L104.824 29.2731H104.956V1.65906H111.415V47.7924H103.968L95.2682 14.1151H95.1364V47.7924H88.6777V1.65906Z" fill="#F7F7F7"/>
<path opacity="0.9" d="M76 1.15906H75.5V1.65906V47.7924V48.2924H76H83.2495H83.7495V47.7924V1.65906V1.15906H83.2495H76Z" stroke="white"/>
</svg>
